STARTFONT 2.1
FONT -FontForge-Computer Pixel7-Normal-R-Normal--8-90-64-64-P-70-WinRoman-0
SIZE 9 64 64
FONTBOUNDINGBOX 11 15 0 -3
COMMENT "Generated by fontforge, http://fontforge.sourceforge.net"
COMMENT "Copyright (c) 2012, Style-7. All rights reserved."
STARTPROPERTIES 33
FOUNDRY "FontForge"
FAMILY_NAME "Computer Pixel7"
WEIGHT_NAME "Normal"
SLANT "R"
SETWIDTH_NAME "Normal"
ADD_STYLE_NAME ""
PIXEL_SIZE 8
POINT_SIZE 90
RESOLUTION_X 64
RESOLUTION_Y 64
SPACING "P"
AVERAGE_WIDTH 70
CHARSET_REGISTRY "WinRoman"
CHARSET_ENCODING "0"
FONTNAME_REGISTRY ""
CHARSET_COLLECTIONS "WinRoman"
FONT_NAME "ComputerPixel-7"
FACE_NAME "Computer Pixel-7"
COPYRIGHT "Copyright (c) 2012, Style-7. All rights reserved."
FONT_VERSION "001.000"
FONT_ASCENT 6
FONT_DESCENT 2
UNDERLINE_POSITION -1
UNDERLINE_THICKNESS 1
X_HEIGHT 6
CAP_HEIGHT 8
RAW_ASCENT 800
RAW_DESCENT 200
NORM_SPACE 8
RELATIVE_WEIGHT 40
RELATIVE_SETWIDTH 50
AVG_LOWERCASE_WIDTH 69
AVG_UPPERCASE_WIDTH 79
ENDPROPERTIES
CHARS 224
STARTCHAR space
ENCODING 32
SWIDTH 1000 0
DWIDTH 8 0
BBX 1 1 7 -3
BITMAP
00
ENDCHAR
STARTCHAR exclam
ENCODING 33
SWIDTH 375 0
DWIDTH 3 0
BBX 2 9 0 0
BITMAP
80
80
80
C0
C0
C0
C0
00
C0
ENDCHAR
STARTCHAR quotedbl
ENCODING 34
SWIDTH 500 0
DWIDTH 4 0
BBX 3 3 0 6
BITMAP
A0
A0
A0
ENDCHAR
STARTCHAR numbersign
ENCODING 35
SWIDTH 1125 0
DWIDTH 9 0
BBX 8 9 0 0
BITMAP
44
44
FF
44
66
66
FF
66
66
ENDCHAR
STARTCHAR dollar
ENCODING 36
SWIDTH 1000 0
DWIDTH 8 0
BBX 7 11 0 -1
BITMAP
10
7E
90
90
90
7C
16
16
16
FC
10
ENDCHAR
STARTCHAR percent
ENCODING 37
SWIDTH 1125 0
DWIDTH 9 0
BBX 8 9 0 0
BITMAP
E0
A8
E8
10
10
30
37
65
67
ENDCHAR
STARTCHAR ampersand
ENCODING 38
SWIDTH 1125 0
DWIDTH 9 0
BBX 8 9 0 0
BITMAP
78
84
84
84
7B
C4
C4
C4
7B
ENDCHAR
STARTCHAR quotesingle
ENCODING 39
SWIDTH 250 0
DWIDTH 2 0
BBX 1 3 0 6
BITMAP
80
80
80
ENDCHAR
STARTCHAR parenleft
ENCODING 40
SWIDTH 625 0
DWIDTH 5 0
BBX 4 9 0 0
BITMAP
70
80
80
80
C0
C0
C0
C0
70
ENDCHAR
STARTCHAR parenright
ENCODING 41
SWIDTH 625 0
DWIDTH 5 0
BBX 4 9 0 0
BITMAP
E0
10
10
10
30
30
30
30
E0
ENDCHAR
STARTCHAR asterisk
ENCODING 42
SWIDTH 750 0
DWIDTH 6 0
BBX 5 5 0 2
BITMAP
50
20
F8
20
50
ENDCHAR
STARTCHAR plus
ENCODING 43
SWIDTH 1000 0
DWIDTH 8 0
BBX 7 7 0 1
BITMAP
10
10
10
FE
18
18
18
ENDCHAR
STARTCHAR comma
ENCODING 44
SWIDTH 375 0
DWIDTH 3 0
BBX 2 3 0 -2
BITMAP
C0
40
40
ENDCHAR
STARTCHAR hyphen
ENCODING 45
SWIDTH 1000 0
DWIDTH 8 0
BBX 7 1 0 4
BITMAP
FE
ENDCHAR
STARTCHAR period
ENCODING 46
SWIDTH 375 0
DWIDTH 3 0
BBX 2 1 0 0
BITMAP
C0
ENDCHAR
STARTCHAR slash
ENCODING 47
SWIDTH 625 0
DWIDTH 5 0
BBX 4 8 0 0
BITMAP
10
10
20
20
60
60
C0
C0
ENDCHAR
STARTCHAR zero
ENCODING 48
SWIDTH 1000 0
DWIDTH 8 0
BBX 7 9 0 0
BITMAP
7C
86
86
86
C6
C2
C2
C2
7C
ENDCHAR
STARTCHAR one
ENCODING 49
SWIDTH 875 0
DWIDTH 7 0
BBX 6 9 0 0
BITMAP
70
10
10
10
30
30
30
30
FC
ENDCHAR
STARTCHAR two
ENCODING 50
SWIDTH 1000 0
DWIDTH 8 0
BBX 7 9 0 0
BITMAP
FC
02
02
02
7C
C0
C0
C0
FE
ENDCHAR
STARTCHAR three
ENCODING 51
SWIDTH 1000 0
DWIDTH 8 0
BBX 7 9 0 0
BITMAP
FC
02
02
02
7C
06
06
06
FC
ENDCHAR
STARTCHAR four
ENCODING 52
SWIDTH 1000 0
DWIDTH 8 0
BBX 7 9 0 0
BITMAP
82
82
82
82
FE
06
06
06
06
ENDCHAR
STARTCHAR five
ENCODING 53
SWIDTH 1000 0
DWIDTH 8 0
BBX 7 9 0 0
BITMAP
FE
80
80
80
FC
06
06
06
FC
ENDCHAR
STARTCHAR six
ENCODING 54
SWIDTH 1000 0
DWIDTH 8 0
BBX 7 9 0 0
BITMAP
7C
80
80
80
FC
C2
C2
C2
7C
ENDCHAR
STARTCHAR seven
ENCODING 55
SWIDTH 1000 0
DWIDTH 8 0
BBX 7 9 0 0
BITMAP
FE
02
02
02
06
06
06
06
06
ENDCHAR
STARTCHAR eight
ENCODING 56
SWIDTH 1000 0
DWIDTH 8 0
BBX 7 9 0 0
BITMAP
7C
82
82
82
7C
C6
C6
C6
7C
ENDCHAR
STARTCHAR nine
ENCODING 57
SWIDTH 1000 0
DWIDTH 8 0
BBX 7 9 0 0
BITMAP
7C
82
82
82
7E
06
06
06
7C
ENDCHAR
STARTCHAR colon
ENCODING 58
SWIDTH 375 0
DWIDTH 3 0
BBX 2 5 0 2
BITMAP
C0
00
00
00
C0
ENDCHAR
STARTCHAR semicolon
ENCODING 59
SWIDTH 375 0
DWIDTH 3 0
BBX 2 9 0 -2
BITMAP
C0
00
00
00
00
00
C0
40
40
ENDCHAR
STARTCHAR less
ENCODING 60
SWIDTH 625 0
DWIDTH 5 0
BBX 4 7 0 1
BITMAP
10
20
40
C0
60
30
10
ENDCHAR
STARTCHAR equal
ENCODING 61
SWIDTH 1000 0
DWIDTH 8 0
BBX 7 4 0 2
BITMAP
FE
00
00
FE
ENDCHAR
STARTCHAR greater
ENCODING 62
SWIDTH 625 0
DWIDTH 5 0
BBX 4 7 0 1
BITMAP
80
40
20
30
60
C0
80
ENDCHAR
STARTCHAR question
ENCODING 63
SWIDTH 1000 0
DWIDTH 8 0
BBX 7 9 0 0
BITMAP
7C
82
02
02
1C
18
18
00
18
ENDCHAR
STARTCHAR at
ENCODING 64
SWIDTH 1000 0
DWIDTH 8 0
BBX 7 9 0 0
BITMAP
FE
82
9E
92
DA
DA
DE
C0
FC
ENDCHAR
STARTCHAR A
ENCODING 65
SWIDTH 1000 0
DWIDTH 8 0
BBX 7 9 0 0
BITMAP
7C
82
82
82
FE
C6
C6
C6
C6
ENDCHAR
STARTCHAR B
ENCODING 66
SWIDTH 1000 0
DWIDTH 8 0
BBX 7 9 0 0
BITMAP
FC
82
82
82
FC
C2
C2
C2
FC
ENDCHAR
STARTCHAR C
ENCODING 67
SWIDTH 1000 0
DWIDTH 8 0
BBX 7 9 0 0
BITMAP
7E
80
80
80
C0
C0
C0
C0
7E
ENDCHAR
STARTCHAR D
ENCODING 68
SWIDTH 1000 0
DWIDTH 8 0
BBX 7 9 0 0
BITMAP
FC
82
82
82
C2
C2
C2
C2
FC
ENDCHAR
STARTCHAR E
ENCODING 69
SWIDTH 1000 0
DWIDTH 8 0
BBX 7 9 0 0
BITMAP
FE
80
80
80
FC
C0
C0
C0
FE
ENDCHAR
STARTCHAR F
ENCODING 70
SWIDTH 1000 0
DWIDTH 8 0
BBX 7 9 0 0
BITMAP
FE
80
80
80
FC
C0
C0
C0
C0
ENDCHAR
STARTCHAR G
ENCODING 71
SWIDTH 1000 0
DWIDTH 8 0
BBX 7 9 0 0
BITMAP
7C
80
80
80
CE
C2
C2
C2
7C
ENDCHAR
STARTCHAR H
ENCODING 72
SWIDTH 1000 0
DWIDTH 8 0
BBX 7 9 0 0
BITMAP
82
82
82
82
FE
C6
C6
C6
C6
ENDCHAR
STARTCHAR I
ENCODING 73
SWIDTH 625 0
DWIDTH 5 0
BBX 4 9 0 0
BITMAP
F0
20
20
20
60
60
60
60
F0
ENDCHAR
STARTCHAR J
ENCODING 74
SWIDTH 1000 0
DWIDTH 8 0
BBX 7 9 0 0
BITMAP
FE
02
02
02
06
86
86
86
7C
ENDCHAR
STARTCHAR K
ENCODING 75
SWIDTH 1000 0
DWIDTH 8 0
BBX 7 9 0 0
BITMAP
82
82
84
88
F0
C8
C4
C2
C2
ENDCHAR
STARTCHAR L
ENCODING 76
SWIDTH 1000 0
DWIDTH 8 0
BBX 7 9 0 0
BITMAP
80
80
80
80
C0
C0
C0
C0
FE
ENDCHAR
STARTCHAR M
ENCODING 77
SWIDTH 1000 0
DWIDTH 8 0
BBX 7 9 0 0
BITMAP
82
82
82
C6
EE
D6
D6
C6
C6
ENDCHAR
STARTCHAR N
ENCODING 78
SWIDTH 1000 0
DWIDTH 8 0
BBX 7 9 0 0
BITMAP
82
82
C2
E2
D2
CA
C6
C2
C2
ENDCHAR
STARTCHAR O
ENCODING 79
SWIDTH 1000 0
DWIDTH 8 0
BBX 7 9 0 0
BITMAP
7C
82
82
82
C6
C6
C6
C6
7C
ENDCHAR
STARTCHAR P
ENCODING 80
SWIDTH 1000 0
DWIDTH 8 0
BBX 7 9 0 0
BITMAP
FC
82
82
82
FC
C0
C0
C0
C0
ENDCHAR
STARTCHAR Q
ENCODING 81
SWIDTH 1000 0
DWIDTH 8 0
BBX 7 9 0 0
BITMAP
7C
82
82
82
86
86
86
86
7E
ENDCHAR
STARTCHAR R
ENCODING 82
SWIDTH 1000 0
DWIDTH 8 0
BBX 7 9 0 0
BITMAP
FC
82
82
82
FC
C8
C4
C2
C2
ENDCHAR
STARTCHAR S
ENCODING 83
SWIDTH 1000 0
DWIDTH 8 0
BBX 7 9 0 0
BITMAP
7E
80
80
80
7C
06
06
06
FC
ENDCHAR
STARTCHAR T
ENCODING 84
SWIDTH 1000 0
DWIDTH 8 0
BBX 7 9 0 0
BITMAP
FE
10
10
10
30
30
30
30
30
ENDCHAR
STARTCHAR U
ENCODING 85
SWIDTH 1000 0
DWIDTH 8 0
BBX 7 9 0 0
BITMAP
82
82
82
82
C6
C6
C6
C6
7C
ENDCHAR
STARTCHAR V
ENCODING 86
SWIDTH 1000 0
DWIDTH 8 0
BBX 7 9 0 0
BITMAP
82
82
82
82
C6
C6
44
28
10
ENDCHAR
STARTCHAR W
ENCODING 87
SWIDTH 1000 0
DWIDTH 8 0
BBX 7 9 0 0
BITMAP
82
82
92
92
D6
D6
D6
D6
7C
ENDCHAR
STARTCHAR X
ENCODING 88
SWIDTH 1000 0
DWIDTH 8 0
BBX 7 9 0 0
BITMAP
82
82
44
28
10
28
44
C6
C6
ENDCHAR
STARTCHAR Y
ENCODING 89
SWIDTH 1000 0
DWIDTH 8 0
BBX 7 9 0 0
BITMAP
82
82
82
82
7E
06
06
06
7C
ENDCHAR
STARTCHAR Z
ENCODING 90
SWIDTH 1000 0
DWIDTH 8 0
BBX 7 9 0 0
BITMAP
FE
06
04
08
10
20
40
C0
FE
ENDCHAR
STARTCHAR bracketleft
ENCODING 91
SWIDTH 625 0
DWIDTH 5 0
BBX 4 9 0 0
BITMAP
F0
80
80
80
C0
C0
C0
C0
F0
ENDCHAR
STARTCHAR backslash
ENCODING 92
SWIDTH 625 0
DWIDTH 5 0
BBX 4 8 0 0
BITMAP
80
80
40
40
60
60
30
30
ENDCHAR
STARTCHAR bracketright
ENCODING 93
SWIDTH 625 0
DWIDTH 5 0
BBX 4 9 0 0
BITMAP
F0
10
10
10
30
30
30
30
F0
ENDCHAR
STARTCHAR asciicircum
ENCODING 94
SWIDTH 1000 0
DWIDTH 8 0
BBX 7 4 0 5
BITMAP
10
28
44
82
ENDCHAR
STARTCHAR underscore
ENCODING 95
SWIDTH 1000 0
DWIDTH 8 0
BBX 7 1 0 0
BITMAP
FE
ENDCHAR
STARTCHAR grave
ENCODING 96
SWIDTH 500 0
DWIDTH 4 0
BBX 3 3 0 6
BITMAP
80
40
20
ENDCHAR
STARTCHAR a
ENCODING 97
SWIDTH 875 0
DWIDTH 7 0
BBX 6 7 0 0
BITMAP
78
04
7C
8C
8C
8C
7C
ENDCHAR
STARTCHAR b
ENCODING 98
SWIDTH 875 0
DWIDTH 7 0
BBX 6 9 0 0
BITMAP
80
80
F8
84
C4
C4
C4
C4
F8
ENDCHAR
STARTCHAR c
ENCODING 99
SWIDTH 875 0
DWIDTH 7 0
BBX 6 7 0 0
BITMAP
7C
80
C0
C0
C0
C0
7C
ENDCHAR
STARTCHAR d
ENCODING 100
SWIDTH 875 0
DWIDTH 7 0
BBX 6 9 0 0
BITMAP
04
04
7C
84
8C
8C
8C
8C
7C
ENDCHAR
STARTCHAR e
ENCODING 101
SWIDTH 875 0
DWIDTH 7 0
BBX 6 7 0 0
BITMAP
78
84
C4
C4
FC
C0
78
ENDCHAR
STARTCHAR f
ENCODING 102
SWIDTH 875 0
DWIDTH 7 0
BBX 6 9 0 0
BITMAP
38
44
40
40
F8
60
60
60
60
ENDCHAR
STARTCHAR g
ENCODING 103
SWIDTH 875 0
DWIDTH 7 0
BBX 6 9 0 -2
BITMAP
78
84
8C
8C
8C
8C
7C
0C
78
ENDCHAR
STARTCHAR h
ENCODING 104
SWIDTH 875 0
DWIDTH 7 0
BBX 6 9 0 0
BITMAP
80
80
F8
84
C4
C4
C4
C4
C4
ENDCHAR
STARTCHAR i
ENCODING 105
SWIDTH 625 0
DWIDTH 5 0
BBX 4 9 0 0
BITMAP
60
00
F0
40
60
60
60
60
F0
ENDCHAR
STARTCHAR j
ENCODING 106
SWIDTH 750 0
DWIDTH 6 0
BBX 5 11 0 -2
BITMAP
30
00
78
08
18
18
18
18
18
98
70
ENDCHAR
STARTCHAR k
ENCODING 107
SWIDTH 875 0
DWIDTH 7 0
BBX 6 9 0 0
BITMAP
80
80
84
84
88
F0
C8
C4
C4
ENDCHAR
STARTCHAR l
ENCODING 108
SWIDTH 625 0
DWIDTH 5 0
BBX 4 9 0 0
BITMAP
C0
40
40
40
60
60
60
60
F0
ENDCHAR
STARTCHAR m
ENCODING 109
SWIDTH 1125 0
DWIDTH 9 0
BBX 8 7 0 0
BITMAP
F6
89
C9
C9
C9
C9
C9
ENDCHAR
STARTCHAR n
ENCODING 110
SWIDTH 875 0
DWIDTH 7 0
BBX 6 7 0 0
BITMAP
F8
84
C4
C4
C4
C4
C4
ENDCHAR
STARTCHAR o
ENCODING 111
SWIDTH 875 0
DWIDTH 7 0
BBX 6 7 0 0
BITMAP
78
84
C4
C4
C4
C4
78
ENDCHAR
STARTCHAR p
ENCODING 112
SWIDTH 875 0
DWIDTH 7 0
BBX 6 9 0 -2
BITMAP
F8
84
C4
C4
C4
C4
F8
C0
C0
ENDCHAR
STARTCHAR q
ENCODING 113
SWIDTH 875 0
DWIDTH 7 0
BBX 6 9 0 -2
BITMAP
7C
84
8C
8C
8C
8C
7C
0C
0C
ENDCHAR
STARTCHAR r
ENCODING 114
SWIDTH 875 0
DWIDTH 7 0
BBX 6 7 0 0
BITMAP
F8
84
C0
C0
C0
C0
C0
ENDCHAR
STARTCHAR s
ENCODING 115
SWIDTH 875 0
DWIDTH 7 0
BBX 6 7 0 0
BITMAP
7C
80
80
78
0C
0C
F8
ENDCHAR
STARTCHAR t
ENCODING 116
SWIDTH 875 0
DWIDTH 7 0
BBX 6 9 0 0
BITMAP
40
40
40
F8
60
60
60
64
38
ENDCHAR
STARTCHAR u
ENCODING 117
SWIDTH 875 0
DWIDTH 7 0
BBX 6 7 0 0
BITMAP
84
C4
C4
C4
C4
C4
78
ENDCHAR
STARTCHAR v
ENCODING 118
SWIDTH 875 0
DWIDTH 7 0
BBX 6 7 0 0
BITMAP
84
C4
C4
C4
C4
48
30
ENDCHAR
STARTCHAR w
ENCODING 119
SWIDTH 1125 0
DWIDTH 9 0
BBX 8 7 0 0
BITMAP
81
C9
C9
C9
C9
C9
76
ENDCHAR
STARTCHAR x
ENCODING 120
SWIDTH 875 0
DWIDTH 7 0
BBX 6 7 0 0
BITMAP
CC
CC
48
30
48
CC
CC
ENDCHAR
STARTCHAR y
ENCODING 121
SWIDTH 875 0
DWIDTH 7 0
BBX 6 9 0 -2
BITMAP
84
8C
8C
8C
8C
8C
7C
0C
78
ENDCHAR
STARTCHAR z
ENCODING 122
SWIDTH 875 0
DWIDTH 7 0
BBX 6 7 0 0
BITMAP
FC
0C
08
30
40
C0
FC
ENDCHAR
STARTCHAR braceleft
ENCODING 123
SWIDTH 750 0
DWIDTH 6 0
BBX 5 9 0 0
BITMAP
78
40
40
40
E0
60
60
60
78
ENDCHAR
STARTCHAR bar
ENCODING 124
SWIDTH 375 0
DWIDTH 3 0
BBX 2 9 0 0
BITMAP
80
80
80
80
C0
C0
C0
C0
C0
ENDCHAR
STARTCHAR braceright
ENCODING 125
SWIDTH 750 0
DWIDTH 6 0
BBX 5 9 0 0
BITMAP
F0
10
10
10
38
30
30
30
F0
ENDCHAR
STARTCHAR asciitilde
ENCODING 126
SWIDTH 1000 0
DWIDTH 8 0
BBX 7 4 0 3
BITMAP
60
92
92
0C
ENDCHAR
STARTCHAR uni007F
ENCODING 127
SWIDTH 1000 0
DWIDTH 8 0
BBX 1 1 7 -3
BITMAP
00
ENDCHAR
STARTCHAR Euro
ENCODING 128
SWIDTH 1125 0
DWIDTH 9 0
BBX 8 9 0 0
BITMAP
3F
40
40
FE
60
FE
60
60
3F
ENDCHAR
STARTCHAR NameMe.129
ENCODING 129
SWIDTH 1000 0
DWIDTH 8 0
BBX 1 1 7 -3
BITMAP
00
ENDCHAR
STARTCHAR quotesinglbase
ENCODING 130
SWIDTH 375 0
DWIDTH 3 0
BBX 2 3 0 -2
BITMAP
C0
40
40
ENDCHAR
STARTCHAR florin
ENCODING 131
SWIDTH 1000 0
DWIDTH 8 0
BBX 7 11 0 -2
BITMAP
1C
22
20
20
7C
30
30
30
30
30
E0
ENDCHAR
STARTCHAR quotedblbase
ENCODING 132
SWIDTH 750 0
DWIDTH 6 0
BBX 5 3 0 -2
BITMAP
D8
48
48
ENDCHAR
STARTCHAR ellipsis
ENCODING 133
SWIDTH 750 0
DWIDTH 6 0
BBX 5 1 0 0
BITMAP
A8
ENDCHAR
STARTCHAR dagger
ENCODING 134
SWIDTH 875 0
DWIDTH 7 0
BBX 6 9 0 0
BITMAP
20
20
FC
20
30
30
30
30
30
ENDCHAR
STARTCHAR daggerdbl
ENCODING 135
SWIDTH 875 0
DWIDTH 7 0
BBX 6 9 0 0
BITMAP
20
20
FC
20
30
30
FC
30
30
ENDCHAR
STARTCHAR circumflex
ENCODING 136
SWIDTH 750 0
DWIDTH 6 0
BBX 5 3 0 6
BITMAP
20
50
88
ENDCHAR
STARTCHAR perthousand
ENCODING 137
SWIDTH 1375 0
DWIDTH 11 0
BBX 10 9 0 0
BITMAP
C000
C800
C800
1800
1800
3000
36C0
66C0
66C0
ENDCHAR
STARTCHAR Scaron
ENCODING 138
SWIDTH 1000 0
DWIDTH 8 0
BBX 7 12 0 0
BITMAP
44
38
00
7E
80
80
80
7C
06
06
06
FC
ENDCHAR
STARTCHAR guilsinglleft
ENCODING 139
SWIDTH 625 0
DWIDTH 5 0
BBX 4 8 0 0
BITMAP
10
20
40
C0
C0
60
30
10
ENDCHAR
STARTCHAR OE
ENCODING 140
SWIDTH 1250 0
DWIDTH 10 0
BBX 9 9 0 0
BITMAP
7F80
8800
8800
8800
CF00
CC00
CC00
CC00
7F80
ENDCHAR
STARTCHAR NameMe.141
ENCODING 141
SWIDTH 1000 0
DWIDTH 8 0
BBX 1 1 7 -3
BITMAP
00
ENDCHAR
STARTCHAR Zcaron
ENCODING 142
SWIDTH 1000 0
DWIDTH 8 0
BBX 7 12 0 0
BITMAP
44
38
00
FE
06
04
08
10
20
40
C0
FE
ENDCHAR
STARTCHAR NameMe.143
ENCODING 143
SWIDTH 1000 0
DWIDTH 8 0
BBX 1 1 7 -3
BITMAP
00
ENDCHAR
STARTCHAR NameMe.144
ENCODING 144
SWIDTH 1000 0
DWIDTH 8 0
BBX 1 1 7 -3
BITMAP
00
ENDCHAR
STARTCHAR quoteleft
ENCODING 145
SWIDTH 375 0
DWIDTH 3 0
BBX 2 3 0 8
BITMAP
80
80
C0
ENDCHAR
STARTCHAR quoteright
ENCODING 146
SWIDTH 375 0
DWIDTH 3 0
BBX 2 3 0 6
BITMAP
C0
40
40
ENDCHAR
STARTCHAR quotedblleft
ENCODING 147
SWIDTH 750 0
DWIDTH 6 0
BBX 5 3 0 8
BITMAP
90
90
D8
ENDCHAR
STARTCHAR quotedblright
ENCODING 148
SWIDTH 750 0
DWIDTH 6 0
BBX 5 3 0 6
BITMAP
D8
48
48
ENDCHAR
STARTCHAR bullet
ENCODING 149
SWIDTH 625 0
DWIDTH 5 0
BBX 4 4 0 3
BITMAP
60
F0
F0
60
ENDCHAR
STARTCHAR endash
ENCODING 150
SWIDTH 1000 0
DWIDTH 8 0
BBX 7 1 0 4
BITMAP
FE
ENDCHAR
STARTCHAR emdash
ENCODING 151
SWIDTH 1125 0
DWIDTH 9 0
BBX 8 1 0 4
BITMAP
FF
ENDCHAR
STARTCHAR tilde
ENCODING 152
SWIDTH 1000 0
DWIDTH 8 0
BBX 7 3 0 6
BITMAP
62
92
8C
ENDCHAR
STARTCHAR trademark
ENCODING 153
SWIDTH 1375 0
DWIDTH 11 0
BBX 10 6 0 0
BITMAP
FC40
26C0
2540
2440
36C0
36C0
ENDCHAR
STARTCHAR scaron
ENCODING 154
SWIDTH 875 0
DWIDTH 7 0
BBX 6 10 0 0
BITMAP
48
30
00
7C
80
80
78
0C
0C
F8
ENDCHAR
STARTCHAR guilsinglright
ENCODING 155
SWIDTH 625 0
DWIDTH 5 0
BBX 4 8 0 0
BITMAP
80
40
20
30
30
60
C0
80
ENDCHAR
STARTCHAR oe
ENCODING 156
SWIDTH 1250 0
DWIDTH 10 0
BBX 9 7 0 0
BITMAP
7700
8880
CC80
CC80
CF80
C800
7700
ENDCHAR
STARTCHAR NameMe.157
ENCODING 157
SWIDTH 1000 0
DWIDTH 8 0
BBX 1 1 7 -3
BITMAP
00
ENDCHAR
STARTCHAR zcaron
ENCODING 158
SWIDTH 875 0
DWIDTH 7 0
BBX 6 10 0 0
BITMAP
48
30
00
FC
0C
08
30
40
C0
FC
ENDCHAR
STARTCHAR Ydieresis
ENCODING 159
SWIDTH 1000 0
DWIDTH 8 0
BBX 7 11 0 0
BITMAP
44
00
82
82
82
82
7E
06
06
06
7C
ENDCHAR
STARTCHAR uni00A0
ENCODING 160
SWIDTH 1000 0
DWIDTH 8 0
BBX 1 1 7 -3
BITMAP
00
ENDCHAR
STARTCHAR exclamdown
ENCODING 161
SWIDTH 375 0
DWIDTH 3 0
BBX 2 9 0 0
BITMAP
C0
00
80
80
C0
C0
C0
C0
C0
ENDCHAR
STARTCHAR cent
ENCODING 162
SWIDTH 875 0
DWIDTH 7 0
BBX 6 9 0 -1
BITMAP
10
7C
90
D0
D0
D0
D0
7C
10
ENDCHAR
STARTCHAR sterling
ENCODING 163
SWIDTH 875 0
DWIDTH 7 0
BBX 6 9 0 0
BITMAP
38
44
40
40
F8
60
60
60
FC
ENDCHAR
STARTCHAR currency
ENCODING 164
SWIDTH 750 0
DWIDTH 6 0
BBX 5 5 0 2
BITMAP
88
70
50
70
88
ENDCHAR
STARTCHAR yen
ENCODING 165
SWIDTH 1000 0
DWIDTH 8 0
BBX 7 9 0 0
BITMAP
82
82
44
28
10
7C
10
7C
10
ENDCHAR
STARTCHAR brokenbar
ENCODING 166
SWIDTH 375 0
DWIDTH 3 0
BBX 2 9 0 0
BITMAP
80
80
80
80
00
C0
C0
C0
C0
ENDCHAR
STARTCHAR section
ENCODING 167
SWIDTH 875 0
DWIDTH 7 0
BBX 6 9 0 0
BITMAP
FC
80
80
FC
84
FC
0C
0C
FC
ENDCHAR
STARTCHAR dieresis
ENCODING 168
SWIDTH 750 0
DWIDTH 6 0
BBX 5 1 0 8
BITMAP
D8
ENDCHAR
STARTCHAR copyright
ENCODING 169
SWIDTH 1250 0
DWIDTH 10 0
BBX 9 9 0 0
BITMAP
7F00
8080
9C80
9080
D180
D180
DD80
C180
7F00
ENDCHAR
STARTCHAR ordfeminine
ENCODING 170
SWIDTH 500 0
DWIDTH 4 0
BBX 3 5 0 4
BITMAP
E0
20
E0
A0
E0
ENDCHAR
STARTCHAR guillemotleft
ENCODING 171
SWIDTH 1000 0
DWIDTH 8 0
BBX 7 8 0 0
BITMAP
12
24
48
D8
D8
6C
36
12
ENDCHAR
STARTCHAR logicalnot
ENCODING 172
SWIDTH 1000 0
DWIDTH 8 0
BBX 7 3 0 6
BITMAP
FE
02
02
ENDCHAR
STARTCHAR uni00AD
ENCODING 173
SWIDTH 875 0
DWIDTH 7 0
BBX 6 1 0 4
BITMAP
FC
ENDCHAR
STARTCHAR registered
ENCODING 174
SWIDTH 1250 0
DWIDTH 10 0
BBX 9 9 0 0
BITMAP
7F00
8080
9C80
9480
D980
D580
D580
C180
7F00
ENDCHAR
STARTCHAR macron
ENCODING 175
SWIDTH 1000 0
DWIDTH 8 0
BBX 1 1 7 -3
BITMAP
00
ENDCHAR
STARTCHAR degree
ENCODING 176
SWIDTH 625 0
DWIDTH 5 0
BBX 4 4 0 5
BITMAP
60
90
90
60
ENDCHAR
STARTCHAR plusminus
ENCODING 177
SWIDTH 1000 0
DWIDTH 8 0
BBX 7 9 0 0
BITMAP
10
10
10
FE
18
18
18
00
FE
ENDCHAR
STARTCHAR uni00B2
ENCODING 178
SWIDTH 625 0
DWIDTH 5 0
BBX 4 5 0 4
BITMAP
60
90
20
40
F0
ENDCHAR
STARTCHAR uni00B3
ENCODING 179
SWIDTH 625 0
DWIDTH 5 0
BBX 4 5 0 4
BITMAP
E0
10
60
10
E0
ENDCHAR
STARTCHAR acute
ENCODING 180
SWIDTH 500 0
DWIDTH 4 0
BBX 3 3 0 6
BITMAP
20
40
80
ENDCHAR
STARTCHAR mu
ENCODING 181
SWIDTH 1000 0
DWIDTH 8 0
BBX 7 8 0 -1
BITMAP
82
82
C2
C2
E6
DA
C2
C0
ENDCHAR
STARTCHAR paragraph
ENCODING 182
SWIDTH 1000 0
DWIDTH 8 0
BBX 7 9 0 0
BITMAP
7E
E4
E4
64
34
34
34
34
34
ENDCHAR
STARTCHAR periodcentered
ENCODING 183
SWIDTH 375 0
DWIDTH 3 0
BBX 2 1 0 4
BITMAP
C0
ENDCHAR
STARTCHAR cedilla
ENCODING 184
SWIDTH 500 0
DWIDTH 4 0
BBX 3 3 0 -3
BITMAP
40
20
C0
ENDCHAR
STARTCHAR uni00B9
ENCODING 185
SWIDTH 500 0
DWIDTH 4 0
BBX 3 5 0 4
BITMAP
40
C0
40
40
E0
ENDCHAR
STARTCHAR ordmasculine
ENCODING 186
SWIDTH 625 0
DWIDTH 5 0
BBX 4 5 0 4
BITMAP
60
90
90
90
60
ENDCHAR
STARTCHAR guillemotright
ENCODING 187
SWIDTH 1000 0
DWIDTH 8 0
BBX 7 8 0 0
BITMAP
90
48
24
36
36
6C
D8
90
ENDCHAR
STARTCHAR onequarter
ENCODING 188
SWIDTH 1500 0
DWIDTH 12 0
BBX 11 9 0 0
BITMAP
C000
4200
4200
4600
E6A0
0CA0
0CE0
1820
1820
ENDCHAR
STARTCHAR onehalf
ENCODING 189
SWIDTH 1500 0
DWIDTH 12 0
BBX 11 9 0 0
BITMAP
C000
4200
4200
4600
E6E0
0C20
0CE0
1880
18E0
ENDCHAR
STARTCHAR threequarters
ENCODING 190
SWIDTH 1500 0
DWIDTH 12 0
BBX 11 9 0 0
BITMAP
E000
2200
6200
2600
E6A0
0CA0
0CE0
1820
1820
ENDCHAR
STARTCHAR questiondown
ENCODING 191
SWIDTH 1000 0
DWIDTH 8 0
BBX 7 9 0 0
BITMAP
10
00
10
10
70
C0
C0
C2
7C
ENDCHAR
STARTCHAR Agrave
ENCODING 192
SWIDTH 1000 0
DWIDTH 8 0
BBX 7 12 0 0
BITMAP
20
10
00
7C
82
82
82
FE
C6
C6
C6
C6
ENDCHAR
STARTCHAR Aacute
ENCODING 193
SWIDTH 1000 0
DWIDTH 8 0
BBX 7 12 0 0
BITMAP
08
10
00
7C
82
82
82
FE
C6
C6
C6
C6
ENDCHAR
STARTCHAR Acircumflex
ENCODING 194
SWIDTH 1000 0
DWIDTH 8 0
BBX 7 12 0 0
BITMAP
28
44
00
7C
82
82
82
FE
C6
C6
C6
C6
ENDCHAR
STARTCHAR Atilde
ENCODING 195
SWIDTH 1000 0
DWIDTH 8 0
BBX 7 12 0 0
BITMAP
14
28
00
7C
82
82
82
FE
C6
C6
C6
C6
ENDCHAR
STARTCHAR Adieresis
ENCODING 196
SWIDTH 1000 0
DWIDTH 8 0
BBX 7 11 0 0
BITMAP
44
00
7C
82
82
82
FE
C6
C6
C6
C6
ENDCHAR
STARTCHAR Aring
ENCODING 197
SWIDTH 1000 0
DWIDTH 8 0
BBX 7 12 0 0
BITMAP
10
28
10
7C
82
82
82
FE
C6
C6
C6
C6
ENDCHAR
STARTCHAR AE
ENCODING 198
SWIDTH 1250 0
DWIDTH 10 0
BBX 9 9 0 0
BITMAP
7F80
8800
8800
8800
FF00
CC00
CC00
CC00
CF80
ENDCHAR
STARTCHAR Ccedilla
ENCODING 199
SWIDTH 1000 0
DWIDTH 8 0
BBX 7 12 0 -3
BITMAP
7E
80
80
80
C0
C0
C0
C0
7E
10
08
30
ENDCHAR
STARTCHAR Egrave
ENCODING 200
SWIDTH 1000 0
DWIDTH 8 0
BBX 7 12 0 0
BITMAP
20
10
00
FE
80
80
80
FC
C0
C0
C0
FE
ENDCHAR
STARTCHAR Eacute
ENCODING 201
SWIDTH 1000 0
DWIDTH 8 0
BBX 7 12 0 0
BITMAP
08
10
00
FE
80
80
80
FC
C0
C0
C0
FE
ENDCHAR
STARTCHAR Ecircumflex
ENCODING 202
SWIDTH 1000 0
DWIDTH 8 0
BBX 7 12 0 0
BITMAP
28
44
00
FE
80
80
80
FC
C0
C0
C0
FE
ENDCHAR
STARTCHAR Edieresis
ENCODING 203
SWIDTH 1000 0
DWIDTH 8 0
BBX 7 11 0 0
BITMAP
44
00
FE
80
80
80
FC
C0
C0
C0
FE
ENDCHAR
STARTCHAR Igrave
ENCODING 204
SWIDTH 625 0
DWIDTH 5 0
BBX 4 12 0 0
BITMAP
80
40
00
F0
20
20
20
60
60
60
60
F0
ENDCHAR
STARTCHAR Iacute
ENCODING 205
SWIDTH 625 0
DWIDTH 5 0
BBX 4 12 0 0
BITMAP
10
20
00
F0
20
20
20
60
60
60
60
F0
ENDCHAR
STARTCHAR Icircumflex
ENCODING 206
SWIDTH 875 0
DWIDTH 7 0
BBX 6 12 0 0
BITMAP
48
84
00
78
10
10
10
30
30
30
30
78
ENDCHAR
STARTCHAR Idieresis
ENCODING 207
SWIDTH 625 0
DWIDTH 5 0
BBX 4 11 0 0
BITMAP
90
00
F0
20
20
20
60
60
60
60
F0
ENDCHAR
STARTCHAR Eth
ENCODING 208
SWIDTH 1125 0
DWIDTH 9 0
BBX 8 9 0 0
BITMAP
7E
41
41
41
F9
61
61
61
7E
ENDCHAR
STARTCHAR Ntilde
ENCODING 209
SWIDTH 1000 0
DWIDTH 8 0
BBX 7 12 0 0
BITMAP
14
28
00
82
82
C2
E2
D2
CA
C6
C2
C2
ENDCHAR
STARTCHAR Ograve
ENCODING 210
SWIDTH 1000 0
DWIDTH 8 0
BBX 7 12 0 0
BITMAP
20
10
00
7C
82
82
82
C6
C6
C6
C6
7C
ENDCHAR
STARTCHAR Oacute
ENCODING 211
SWIDTH 1000 0
DWIDTH 8 0
BBX 7 12 0 0
BITMAP
08
10
00
7C
82
82
82
C6
C6
C6
C6
7C
ENDCHAR
STARTCHAR Ocircumflex
ENCODING 212
SWIDTH 1000 0
DWIDTH 8 0
BBX 7 12 0 0
BITMAP
28
44
00
7C
82
82
82
C6
C6
C6
C6
7C
ENDCHAR
STARTCHAR Otilde
ENCODING 213
SWIDTH 1000 0
DWIDTH 8 0
BBX 7 12 0 0
BITMAP
14
28
00
7C
82
82
82
C6
C6
C6
C6
7C
ENDCHAR
STARTCHAR Odieresis
ENCODING 214
SWIDTH 1000 0
DWIDTH 8 0
BBX 7 11 0 0
BITMAP
44
00
7C
82
82
82
C6
C6
C6
C6
7C
ENDCHAR
STARTCHAR multiply
ENCODING 215
SWIDTH 750 0
DWIDTH 6 0
BBX 5 5 0 3
BITMAP
88
50
20
70
D8
ENDCHAR
STARTCHAR Oslash
ENCODING 216
SWIDTH 1250 0
DWIDTH 10 0
BBX 9 9 0 0
BITMAP
3E80
4300
4300
4500
4900
5100
6100
6100
BE00
ENDCHAR
STARTCHAR Ugrave
ENCODING 217
SWIDTH 1000 0
DWIDTH 8 0
BBX 7 12 0 0
BITMAP
20
10
00
82
82
82
82
C6
C6
C6
C6
7C
ENDCHAR
STARTCHAR Uacute
ENCODING 218
SWIDTH 1000 0
DWIDTH 8 0
BBX 7 12 0 0
BITMAP
08
10
00
82
82
82
82
C6
C6
C6
C6
7C
ENDCHAR
STARTCHAR Ucircumflex
ENCODING 219
SWIDTH 1000 0
DWIDTH 8 0
BBX 7 12 0 0
BITMAP
28
44
00
82
82
82
82
C6
C6
C6
C6
7C
ENDCHAR
STARTCHAR Udieresis
ENCODING 220
SWIDTH 1000 0
DWIDTH 8 0
BBX 7 11 0 0
BITMAP
44
00
82
82
82
82
C6
C6
C6
C6
7C
ENDCHAR
STARTCHAR Yacute
ENCODING 221
SWIDTH 1000 0
DWIDTH 8 0
BBX 7 12 0 0
BITMAP
08
10
00
82
82
82
82
7E
06
06
06
7C
ENDCHAR
STARTCHAR Thorn
ENCODING 222
SWIDTH 1000 0
DWIDTH 8 0
BBX 7 9 0 0
BITMAP
80
FC
82
82
C2
C2
C2
FC
C0
ENDCHAR
STARTCHAR germandbls
ENCODING 223
SWIDTH 875 0
DWIDTH 7 0
BBX 6 9 0 0
BITMAP
70
88
88
90
F8
C4
C4
C4
D8
ENDCHAR
STARTCHAR agrave
ENCODING 224
SWIDTH 875 0
DWIDTH 7 0
BBX 6 10 0 0
BITMAP
40
20
00
78
04
7C
8C
8C
8C
7C
ENDCHAR
STARTCHAR aacute
ENCODING 225
SWIDTH 875 0
DWIDTH 7 0
BBX 6 10 0 0
BITMAP
08
10
00
78
04
7C
8C
8C
8C
7C
ENDCHAR
STARTCHAR acircumflex
ENCODING 226
SWIDTH 875 0
DWIDTH 7 0
BBX 6 10 0 0
BITMAP
48
84
00
78
04
7C
8C
8C
8C
7C
ENDCHAR
STARTCHAR atilde
ENCODING 227
SWIDTH 875 0
DWIDTH 7 0
BBX 6 10 0 0
BITMAP
28
50
00
78
04
7C
8C
8C
8C
7C
ENDCHAR
STARTCHAR adieresis
ENCODING 228
SWIDTH 875 0
DWIDTH 7 0
BBX 6 9 0 0
BITMAP
48
00
78
04
7C
8C
8C
8C
7C
ENDCHAR
STARTCHAR aring
ENCODING 229
SWIDTH 875 0
DWIDTH 7 0
BBX 6 11 0 0
BITMAP
20
50
20
00
78
04
7C
8C
8C
8C
7C
ENDCHAR
STARTCHAR ae
ENCODING 230
SWIDTH 1250 0
DWIDTH 10 0
BBX 9 7 0 0
BITMAP
7F00
0C80
7C80
9C80
9F80
9800
7F00
ENDCHAR
STARTCHAR ccedilla
ENCODING 231
SWIDTH 875 0
DWIDTH 7 0
BBX 6 10 0 -3
BITMAP
7C
80
C0
C0
C0
C0
7C
10
08
30
ENDCHAR
STARTCHAR egrave
ENCODING 232
SWIDTH 875 0
DWIDTH 7 0
BBX 6 10 0 0
BITMAP
40
20
00
78
84
C4
C4
FC
C0
78
ENDCHAR
STARTCHAR eacute
ENCODING 233
SWIDTH 875 0
DWIDTH 7 0
BBX 6 10 0 0
BITMAP
08
10
00
78
84
C4
C4
FC
C0
78
ENDCHAR
STARTCHAR ecircumflex
ENCODING 234
SWIDTH 875 0
DWIDTH 7 0
BBX 6 10 0 0
BITMAP
48
84
00
78
84
C4
C4
FC
C0
78
ENDCHAR
STARTCHAR edieresis
ENCODING 235
SWIDTH 875 0
DWIDTH 7 0
BBX 6 9 0 0
BITMAP
48
00
78
84
C4
C4
FC
C0
78
ENDCHAR
STARTCHAR igrave
ENCODING 236
SWIDTH 625 0
DWIDTH 5 0
BBX 4 10 0 0
BITMAP
80
40
00
F0
40
60
60
60
60
F0
ENDCHAR
STARTCHAR iacute
ENCODING 237
SWIDTH 625 0
DWIDTH 5 0
BBX 4 10 0 0
BITMAP
10
20
00
F0
40
60
60
60
60
F0
ENDCHAR
STARTCHAR icircumflex
ENCODING 238
SWIDTH 875 0
DWIDTH 7 0
BBX 6 10 0 0
BITMAP
48
84
00
78
20
30
30
30
30
78
ENDCHAR
STARTCHAR idieresis
ENCODING 239
SWIDTH 625 0
DWIDTH 5 0
BBX 4 9 0 0
BITMAP
90
00
F0
40
60
60
60
60
F0
ENDCHAR
STARTCHAR eth
ENCODING 240
SWIDTH 875 0
DWIDTH 7 0
BBX 6 9 0 0
BITMAP
38
04
7C
84
8C
8C
8C
8C
78
ENDCHAR
STARTCHAR ntilde
ENCODING 241
SWIDTH 875 0
DWIDTH 7 0
BBX 6 10 0 0
BITMAP
28
50
00
F8
84
C4
C4
C4
C4
C4
ENDCHAR
STARTCHAR ograve
ENCODING 242
SWIDTH 875 0
DWIDTH 7 0
BBX 6 10 0 0
BITMAP
40
20
00
78
84
C4
C4
C4
C4
78
ENDCHAR
STARTCHAR oacute
ENCODING 243
SWIDTH 875 0
DWIDTH 7 0
BBX 6 10 0 0
BITMAP
08
10
00
78
84
C4
C4
C4
C4
78
ENDCHAR
STARTCHAR ocircumflex
ENCODING 244
SWIDTH 875 0
DWIDTH 7 0
BBX 6 10 0 0
BITMAP
48
84
00
78
84
C4
C4
C4
C4
78
ENDCHAR
STARTCHAR otilde
ENCODING 245
SWIDTH 875 0
DWIDTH 7 0
BBX 6 10 0 0
BITMAP
28
50
00
78
84
C4
C4
C4
C4
78
ENDCHAR
STARTCHAR odieresis
ENCODING 246
SWIDTH 875 0
DWIDTH 7 0
BBX 6 9 0 0
BITMAP
48
00
78
84
C4
C4
C4
C4
78
ENDCHAR
STARTCHAR divide
ENCODING 247
SWIDTH 875 0
DWIDTH 7 0
BBX 6 5 0 2
BITMAP
30
00
FC
00
30
ENDCHAR
STARTCHAR oslash
ENCODING 248
SWIDTH 1125 0
DWIDTH 9 0
BBX 8 8 0 -1
BITMAP
3D
42
66
6A
72
62
7C
80
ENDCHAR
STARTCHAR ugrave
ENCODING 249
SWIDTH 875 0
DWIDTH 7 0
BBX 6 10 0 0
BITMAP
40
20
00
84
C4
C4
C4
C4
C4
78
ENDCHAR
STARTCHAR uacute
ENCODING 250
SWIDTH 875 0
DWIDTH 7 0
BBX 6 10 0 0
BITMAP
08
10
00
84
C4
C4
C4
C4
C4
78
ENDCHAR
STARTCHAR ucircumflex
ENCODING 251
SWIDTH 875 0
DWIDTH 7 0
BBX 6 10 0 0
BITMAP
48
84
00
84
C4
C4
C4
C4
C4
78
ENDCHAR
STARTCHAR udieresis
ENCODING 252
SWIDTH 875 0
DWIDTH 7 0
BBX 6 9 0 0
BITMAP
48
00
84
C4
C4
C4
C4
C4
78
ENDCHAR
STARTCHAR yacute
ENCODING 253
SWIDTH 875 0
DWIDTH 7 0
BBX 6 12 0 -2
BITMAP
08
10
00
84
8C
8C
8C
8C
8C
7C
0C
78
ENDCHAR
STARTCHAR thorn
ENCODING 254
SWIDTH 875 0
DWIDTH 7 0
BBX 6 11 0 -2
BITMAP
80
80
F8
84
C4
C4
C4
C4
F8
C0
C0
ENDCHAR
STARTCHAR ydieresis
ENCODING 255
SWIDTH 875 0
DWIDTH 7 0
BBX 6 11 0 -2
BITMAP
48
00
84
8C
8C
8C
8C
8C
7C
0C
78
ENDCHAR
ENDFONT
