STARTFONT 2.1
FONT -FontForge-TwelveBySeven-Medium-R-Normal--16-150-75-75-P-71-ISO10646-1
SIZE 15 75 75
FONTBOUNDINGBOX 9 16 0 -4
STARTPROPERTIES 39
FOUNDRY "FontForge"
FAMILY_NAME "TwelveBySeven"
WEIGHT_NAME "Medium"
SLANT "R"
SETWIDTH_NAME "Normal"
ADD_STYLE_NAME ""
PIXEL_SIZE 16
POINT_SIZE 150
RESOLUTION_X 75
RESOLUTION_Y 75
SPACING "P"
AVERAGE_WIDTH 71
CHARSET_REGISTRY "ISO10646"
CHARSET_ENCODING "1"
FONTNAME_REGISTRY ""
CHARSET_COLLECTIONS "ISO8859-2 ISO8859-9 ISO8859-4 ISO10646-1"
FONT_NAME "TwelveBySeven"
FACE_NAME "TwelveBySeven"
COPYRIGHT "Devin"
FONT_VERSION "001.000"
FONT_ASCENT 12
FONT_DESCENT 4
UNDERLINE_POSITION -2
UNDERLINE_THICKNESS 1
X_HEIGHT 6
CAP_HEIGHT 8
RAW_ASCENT 750
RAW_DESCENT 250
NORM_SPACE 5
RELATIVE_WEIGHT 50
RELATIVE_SETWIDTH 50
SUPERSCRIPT_X 0
SUPERSCRIPT_Y 7
SUPERSCRIPT_SIZE 11
SUBSCRIPT_X 0
SUBSCRIPT_Y 2
SUBSCRIPT_SIZE 11
AVG_LOWERCASE_WIDTH 72
AVG_UPPERCASE_WIDTH 77
ENDPROPERTIES
CHARS 320
STARTCHAR nonmarkingreturn
ENCODING -1
SWIDTH 333 0
DWIDTH 5 0
BBX 1 1 0 0
BITMAP
00
ENDCHAR
STARTCHAR space
ENCODING 32
SWIDTH 312 0
DWIDTH 5 0
BBX 1 1 0 0
BITMAP
00
ENDCHAR
STARTCHAR exclam
ENCODING 33
SWIDTH 125 0
DWIDTH 2 0
BBX 1 9 0 0
BITMAP
80
80
80
80
80
80
80
00
80
ENDCHAR
STARTCHAR quotedbl
ENCODING 34
SWIDTH 250 0
DWIDTH 4 0
BBX 3 3 0 6
BITMAP
A0
A0
A0
ENDCHAR
STARTCHAR numbersign
ENCODING 35
SWIDTH 500 0
DWIDTH 8 0
BBX 7 9 0 0
BITMAP
44
44
FE
44
44
44
FE
44
44
ENDCHAR
STARTCHAR dollar
ENCODING 36
SWIDTH 500 0
DWIDTH 8 0
BBX 7 9 0 0
BITMAP
10
7C
92
90
7C
12
92
7C
10
ENDCHAR
STARTCHAR percent
ENCODING 37
SWIDTH 500 0
DWIDTH 8 0
BBX 7 9 0 0
BITMAP
42
A2
44
08
10
20
44
8A
84
ENDCHAR
STARTCHAR ampersand
ENCODING 38
SWIDTH 500 0
DWIDTH 8 0
BBX 7 9 0 0
BITMAP
38
44
48
30
50
88
8A
84
7A
ENDCHAR
STARTCHAR quotesingle
ENCODING 39
SWIDTH 125 0
DWIDTH 2 0
BBX 1 3 0 6
BITMAP
80
80
80
ENDCHAR
STARTCHAR parenleft
ENCODING 40
SWIDTH 250 0
DWIDTH 4 0
BBX 3 9 0 0
BITMAP
20
40
80
80
80
80
80
40
20
ENDCHAR
STARTCHAR parenright
ENCODING 41
SWIDTH 250 0
DWIDTH 4 0
BBX 3 9 0 0
BITMAP
80
40
20
20
20
20
20
40
80
ENDCHAR
STARTCHAR asterisk
ENCODING 42
SWIDTH 375 0
DWIDTH 6 0
BBX 5 5 0 4
BITMAP
20
20
F8
20
50
ENDCHAR
STARTCHAR plus
ENCODING 43
SWIDTH 500 0
DWIDTH 8 0
BBX 7 7 0 1
BITMAP
10
10
10
FE
10
10
10
ENDCHAR
STARTCHAR comma
ENCODING 44
SWIDTH 187 0
DWIDTH 3 0
BBX 2 2 0 0
BITMAP
40
80
ENDCHAR
STARTCHAR hyphen
ENCODING 45
SWIDTH 500 0
DWIDTH 8 0
BBX 7 1 0 4
BITMAP
FE
ENDCHAR
STARTCHAR period
ENCODING 46
SWIDTH 187 0
DWIDTH 3 0
BBX 2 2 0 0
BITMAP
C0
C0
ENDCHAR
STARTCHAR slash
ENCODING 47
SWIDTH 500 0
DWIDTH 8 0
BBX 7 9 0 0
BITMAP
02
02
04
08
10
20
40
80
80
ENDCHAR
STARTCHAR zero
ENCODING 48
SWIDTH 500 0
DWIDTH 8 0
BBX 7 9 0 0
BITMAP
7C
82
82
82
82
82
82
82
7C
ENDCHAR
STARTCHAR one
ENCODING 49
SWIDTH 250 0
DWIDTH 4 0
BBX 3 9 0 0
BITMAP
40
C0
40
40
40
40
40
40
E0
ENDCHAR
STARTCHAR two
ENCODING 50
SWIDTH 500 0
DWIDTH 8 0
BBX 7 9 0 0
BITMAP
7C
82
02
04
08
10
20
40
FE
ENDCHAR
STARTCHAR three
ENCODING 51
SWIDTH 500 0
DWIDTH 8 0
BBX 7 9 0 0
BITMAP
7C
82
02
02
1C
02
02
82
7C
ENDCHAR
STARTCHAR four
ENCODING 52
SWIDTH 500 0
DWIDTH 8 0
BBX 7 9 0 0
BITMAP
84
84
84
84
FE
04
04
04
04
ENDCHAR
STARTCHAR five
ENCODING 53
SWIDTH 500 0
DWIDTH 8 0
BBX 7 9 0 0
BITMAP
FE
80
80
80
FC
02
02
82
7C
ENDCHAR
STARTCHAR six
ENCODING 54
SWIDTH 500 0
DWIDTH 8 0
BBX 7 9 0 0
BITMAP
7C
82
80
80
FC
82
82
82
7C
ENDCHAR
STARTCHAR seven
ENCODING 55
SWIDTH 500 0
DWIDTH 8 0
BBX 7 9 0 0
BITMAP
FE
02
04
04
08
08
10
10
10
ENDCHAR
STARTCHAR eight
ENCODING 56
SWIDTH 500 0
DWIDTH 8 0
BBX 7 9 0 0
BITMAP
7C
82
82
82
7C
82
82
82
7C
ENDCHAR
STARTCHAR nine
ENCODING 57
SWIDTH 500 0
DWIDTH 8 0
BBX 7 9 0 0
BITMAP
7C
82
82
82
7E
02
02
82
7C
ENDCHAR
STARTCHAR colon
ENCODING 58
SWIDTH 187 0
DWIDTH 3 0
BBX 2 9 0 0
BITMAP
C0
C0
00
00
00
00
00
C0
C0
ENDCHAR
STARTCHAR semicolon
ENCODING 59
SWIDTH 187 0
DWIDTH 3 0
BBX 2 9 0 0
BITMAP
C0
C0
00
00
00
00
00
40
80
ENDCHAR
STARTCHAR less
ENCODING 60
SWIDTH 500 0
DWIDTH 8 0
BBX 7 7 0 1
BITMAP
06
18
60
80
60
18
06
ENDCHAR
STARTCHAR equal
ENCODING 61
SWIDTH 500 0
DWIDTH 8 0
BBX 7 5 0 2
BITMAP
FE
00
00
00
FE
ENDCHAR
STARTCHAR greater
ENCODING 62
SWIDTH 500 0
DWIDTH 8 0
BBX 7 7 0 1
BITMAP
C0
30
0C
02
0C
30
C0
ENDCHAR
STARTCHAR question
ENCODING 63
SWIDTH 500 0
DWIDTH 8 0
BBX 7 9 0 0
BITMAP
38
44
82
02
04
08
10
00
10
ENDCHAR
STARTCHAR at
ENCODING 64
SWIDTH 500 0
DWIDTH 8 0
BBX 7 9 0 0
BITMAP
7C
82
02
02
72
92
92
92
7C
ENDCHAR
STARTCHAR A
ENCODING 65
SWIDTH 500 0
DWIDTH 8 0
BBX 7 9 0 0
BITMAP
10
10
28
28
44
7C
82
82
82
ENDCHAR
STARTCHAR B
ENCODING 66
SWIDTH 500 0
DWIDTH 8 0
BBX 7 9 0 0
BITMAP
FC
82
82
82
FC
82
82
82
FC
ENDCHAR
STARTCHAR C
ENCODING 67
SWIDTH 500 0
DWIDTH 8 0
BBX 7 9 0 0
BITMAP
38
44
82
80
80
80
82
44
38
ENDCHAR
STARTCHAR D
ENCODING 68
SWIDTH 500 0
DWIDTH 8 0
BBX 7 9 0 0
BITMAP
F8
84
82
82
82
82
82
84
F8
ENDCHAR
STARTCHAR E
ENCODING 69
SWIDTH 500 0
DWIDTH 8 0
BBX 7 9 0 0
BITMAP
FE
80
80
80
FC
80
80
80
FE
ENDCHAR
STARTCHAR F
ENCODING 70
SWIDTH 500 0
DWIDTH 8 0
BBX 7 9 0 0
BITMAP
FE
80
80
80
FC
80
80
80
80
ENDCHAR
STARTCHAR G
ENCODING 71
SWIDTH 500 0
DWIDTH 8 0
BBX 7 9 0 0
BITMAP
7C
82
82
80
80
8E
82
82
7C
ENDCHAR
STARTCHAR H
ENCODING 72
SWIDTH 500 0
DWIDTH 8 0
BBX 7 9 0 0
BITMAP
82
82
82
82
FE
82
82
82
82
ENDCHAR
STARTCHAR I
ENCODING 73
SWIDTH 250 0
DWIDTH 4 0
BBX 3 9 0 0
BITMAP
E0
40
40
40
40
40
40
40
E0
ENDCHAR
STARTCHAR J
ENCODING 74
SWIDTH 500 0
DWIDTH 8 0
BBX 7 9 0 0
BITMAP
3E
08
08
08
08
08
08
88
70
ENDCHAR
STARTCHAR K
ENCODING 75
SWIDTH 500 0
DWIDTH 8 0
BBX 7 9 0 0
BITMAP
82
84
88
90
E0
90
88
84
82
ENDCHAR
STARTCHAR L
ENCODING 76
SWIDTH 500 0
DWIDTH 8 0
BBX 7 9 0 0
BITMAP
80
80
80
80
80
80
80
80
FE
ENDCHAR
STARTCHAR M
ENCODING 77
SWIDTH 500 0
DWIDTH 8 0
BBX 7 9 0 0
BITMAP
82
C6
AA
92
82
82
82
82
82
ENDCHAR
STARTCHAR N
ENCODING 78
SWIDTH 500 0
DWIDTH 8 0
BBX 7 9 0 0
BITMAP
82
C2
A2
92
8A
86
82
82
82
ENDCHAR
STARTCHAR O
ENCODING 79
SWIDTH 500 0
DWIDTH 8 0
BBX 7 9 0 0
BITMAP
38
44
82
82
82
82
82
44
38
ENDCHAR
STARTCHAR P
ENCODING 80
SWIDTH 500 0
DWIDTH 8 0
BBX 7 9 0 0
BITMAP
FC
82
82
82
FC
80
80
80
80
ENDCHAR
STARTCHAR Q
ENCODING 81
SWIDTH 500 0
DWIDTH 8 0
BBX 7 9 0 0
BITMAP
38
44
82
82
82
82
8A
44
3A
ENDCHAR
STARTCHAR R
ENCODING 82
SWIDTH 500 0
DWIDTH 8 0
BBX 7 9 0 0
BITMAP
FC
82
82
82
FC
90
88
84
82
ENDCHAR
STARTCHAR S
ENCODING 83
SWIDTH 500 0
DWIDTH 8 0
BBX 7 9 0 0
BITMAP
7C
82
80
80
7C
02
02
82
7C
ENDCHAR
STARTCHAR T
ENCODING 84
SWIDTH 500 0
DWIDTH 8 0
BBX 7 9 0 0
BITMAP
FE
10
10
10
10
10
10
10
10
ENDCHAR
STARTCHAR U
ENCODING 85
SWIDTH 500 0
DWIDTH 8 0
BBX 7 9 0 0
BITMAP
82
82
82
82
82
82
82
44
38
ENDCHAR
STARTCHAR V
ENCODING 86
SWIDTH 500 0
DWIDTH 8 0
BBX 7 9 0 0
BITMAP
82
82
82
44
44
28
28
10
10
ENDCHAR
STARTCHAR W
ENCODING 87
SWIDTH 500 0
DWIDTH 8 0
BBX 7 9 0 0
BITMAP
82
82
82
82
92
92
92
92
6C
ENDCHAR
STARTCHAR X
ENCODING 88
SWIDTH 500 0
DWIDTH 8 0
BBX 7 9 0 0
BITMAP
82
82
44
28
10
28
44
82
82
ENDCHAR
STARTCHAR Y
ENCODING 89
SWIDTH 500 0
DWIDTH 8 0
BBX 7 9 0 0
BITMAP
82
44
28
10
10
10
10
10
10
ENDCHAR
STARTCHAR Z
ENCODING 90
SWIDTH 500 0
DWIDTH 8 0
BBX 7 9 0 0
BITMAP
FE
02
04
08
10
20
40
80
FE
ENDCHAR
STARTCHAR bracketleft
ENCODING 91
SWIDTH 250 0
DWIDTH 4 0
BBX 3 9 0 0
BITMAP
E0
80
80
80
80
80
80
80
E0
ENDCHAR
STARTCHAR backslash
ENCODING 92
SWIDTH 500 0
DWIDTH 8 0
BBX 7 9 0 0
BITMAP
80
80
40
20
10
08
04
02
02
ENDCHAR
STARTCHAR bracketright
ENCODING 93
SWIDTH 250 0
DWIDTH 4 0
BBX 3 9 0 0
BITMAP
E0
20
20
20
20
20
20
20
E0
ENDCHAR
STARTCHAR asciicircum
ENCODING 94
SWIDTH 500 0
DWIDTH 8 0
BBX 7 4 0 5
BITMAP
10
28
44
82
ENDCHAR
STARTCHAR underscore
ENCODING 95
SWIDTH 500 0
DWIDTH 8 0
BBX 7 1 0 0
BITMAP
FE
ENDCHAR
STARTCHAR grave
ENCODING 96
SWIDTH 187 0
DWIDTH 3 0
BBX 2 2 0 7
BITMAP
80
40
ENDCHAR
STARTCHAR a
ENCODING 97
SWIDTH 500 0
DWIDTH 8 0
BBX 7 7 0 0
BITMAP
78
84
04
7C
84
84
7A
ENDCHAR
STARTCHAR b
ENCODING 98
SWIDTH 500 0
DWIDTH 8 0
BBX 7 9 0 0
BITMAP
80
80
FC
82
82
82
82
82
FC
ENDCHAR
STARTCHAR c
ENCODING 99
SWIDTH 500 0
DWIDTH 8 0
BBX 7 7 0 0
BITMAP
7C
82
80
80
80
82
7C
ENDCHAR
STARTCHAR d
ENCODING 100
SWIDTH 500 0
DWIDTH 8 0
BBX 7 9 0 0
BITMAP
02
02
7E
82
82
82
82
82
7E
ENDCHAR
STARTCHAR e
ENCODING 101
SWIDTH 500 0
DWIDTH 8 0
BBX 7 7 0 0
BITMAP
7C
82
82
FC
80
82
7C
ENDCHAR
STARTCHAR f
ENCODING 102
SWIDTH 375 0
DWIDTH 6 0
BBX 5 9 0 0
BITMAP
30
48
40
40
E0
40
40
40
40
ENDCHAR
STARTCHAR g
ENCODING 103
SWIDTH 500 0
DWIDTH 8 0
BBX 7 11 0 -4
BITMAP
7E
82
82
82
82
82
7E
02
02
82
7C
ENDCHAR
STARTCHAR h
ENCODING 104
SWIDTH 500 0
DWIDTH 8 0
BBX 7 9 0 0
BITMAP
80
80
FC
82
82
82
82
82
82
ENDCHAR
STARTCHAR i
ENCODING 105
SWIDTH 125 0
DWIDTH 2 0
BBX 1 9 0 0
BITMAP
80
00
80
80
80
80
80
80
80
ENDCHAR
STARTCHAR j
ENCODING 106
SWIDTH 187 0
DWIDTH 3 0
BBX 2 13 0 -4
BITMAP
40
00
C0
40
40
40
40
40
40
40
40
40
80
ENDCHAR
STARTCHAR k
ENCODING 107
SWIDTH 500 0
DWIDTH 8 0
BBX 7 9 0 0
BITMAP
80
80
82
84
88
F0
88
84
82
ENDCHAR
STARTCHAR l
ENCODING 108
SWIDTH 125 0
DWIDTH 2 0
BBX 1 9 0 0
BITMAP
80
80
80
80
80
80
80
80
80
ENDCHAR
STARTCHAR m
ENCODING 109
SWIDTH 500 0
DWIDTH 8 0
BBX 7 7 0 0
BITMAP
EC
92
92
92
92
92
92
ENDCHAR
STARTCHAR n
ENCODING 110
SWIDTH 500 0
DWIDTH 8 0
BBX 7 7 0 0
BITMAP
FC
82
82
82
82
82
82
ENDCHAR
STARTCHAR o
ENCODING 111
SWIDTH 500 0
DWIDTH 8 0
BBX 7 7 0 0
BITMAP
7C
82
82
82
82
82
7C
ENDCHAR
STARTCHAR p
ENCODING 112
SWIDTH 500 0
DWIDTH 8 0
BBX 7 11 0 -4
BITMAP
FC
82
82
82
82
82
FC
80
80
80
80
ENDCHAR
STARTCHAR q
ENCODING 113
SWIDTH 562 0
DWIDTH 9 0
BBX 8 11 0 -4
BITMAP
7E
82
82
82
82
82
7E
02
02
02
01
ENDCHAR
STARTCHAR r
ENCODING 114
SWIDTH 500 0
DWIDTH 8 0
BBX 7 7 0 0
BITMAP
BC
C2
80
80
80
80
80
ENDCHAR
STARTCHAR s
ENCODING 115
SWIDTH 500 0
DWIDTH 8 0
BBX 7 7 0 0
BITMAP
7C
82
80
7C
02
82
7C
ENDCHAR
STARTCHAR t
ENCODING 116
SWIDTH 312 0
DWIDTH 5 0
BBX 4 7 0 0
BITMAP
40
E0
40
40
40
40
30
ENDCHAR
STARTCHAR u
ENCODING 117
SWIDTH 500 0
DWIDTH 8 0
BBX 7 7 0 0
BITMAP
82
82
82
82
82
82
7E
ENDCHAR
STARTCHAR v
ENCODING 118
SWIDTH 500 0
DWIDTH 8 0
BBX 7 7 0 0
BITMAP
82
82
44
44
28
28
10
ENDCHAR
STARTCHAR w
ENCODING 119
SWIDTH 500 0
DWIDTH 8 0
BBX 7 7 0 0
BITMAP
82
82
82
92
92
92
6C
ENDCHAR
STARTCHAR x
ENCODING 120
SWIDTH 500 0
DWIDTH 8 0
BBX 7 7 0 0
BITMAP
82
44
28
10
28
44
82
ENDCHAR
STARTCHAR y
ENCODING 121
SWIDTH 500 0
DWIDTH 8 0
BBX 7 11 0 -4
BITMAP
82
82
82
82
82
82
7E
02
02
82
7C
ENDCHAR
STARTCHAR z
ENCODING 122
SWIDTH 500 0
DWIDTH 8 0
BBX 7 7 0 0
BITMAP
FE
04
08
10
20
40
FE
ENDCHAR
STARTCHAR braceleft
ENCODING 123
SWIDTH 312 0
DWIDTH 5 0
BBX 4 9 0 0
BITMAP
30
40
40
40
80
40
40
40
30
ENDCHAR
STARTCHAR bar
ENCODING 124
SWIDTH 125 0
DWIDTH 2 0
BBX 1 11 0 -1
BITMAP
80
80
80
80
80
80
80
80
80
80
80
ENDCHAR
STARTCHAR braceright
ENCODING 125
SWIDTH 312 0
DWIDTH 5 0
BBX 4 9 0 0
BITMAP
C0
20
20
20
10
20
20
20
C0
ENDCHAR
STARTCHAR asciitilde
ENCODING 126
SWIDTH 500 0
DWIDTH 8 0
BBX 7 3 0 3
BITMAP
60
92
0C
ENDCHAR
STARTCHAR uni00A0
ENCODING 160
SWIDTH 312 0
DWIDTH 5 0
BBX 1 1 0 0
BITMAP
00
ENDCHAR
STARTCHAR exclamdown
ENCODING 161
SWIDTH 125 0
DWIDTH 2 0
BBX 1 9 0 0
BITMAP
80
00
80
80
80
80
80
80
80
ENDCHAR
STARTCHAR cent
ENCODING 162
SWIDTH 500 0
DWIDTH 8 0
BBX 7 9 0 0
BITMAP
10
7C
92
90
90
90
92
7C
10
ENDCHAR
STARTCHAR sterling
ENCODING 163
SWIDTH 500 0
DWIDTH 8 0
BBX 7 9 0 0
BITMAP
3C
42
40
40
F0
40
40
40
FE
ENDCHAR
STARTCHAR currency
ENCODING 164
SWIDTH 500 0
DWIDTH 8 0
BBX 7 7 0 2
BITMAP
82
7C
44
44
44
7C
82
ENDCHAR
STARTCHAR yen
ENCODING 165
SWIDTH 500 0
DWIDTH 8 0
BBX 7 9 0 0
BITMAP
82
44
28
10
FE
10
FE
10
10
ENDCHAR
STARTCHAR brokenbar
ENCODING 166
SWIDTH 125 0
DWIDTH 2 0
BBX 1 11 0 -1
BITMAP
80
80
80
80
80
00
80
80
80
80
80
ENDCHAR
STARTCHAR section
ENCODING 167
SWIDTH 500 0
DWIDTH 8 0
BBX 7 10 0 0
BITMAP
7C
82
80
7C
82
82
7C
02
82
7C
ENDCHAR
STARTCHAR dieresis
ENCODING 168
SWIDTH 250 0
DWIDTH 4 0
BBX 3 1 0 10
BITMAP
A0
ENDCHAR
STARTCHAR copyright
ENCODING 169
SWIDTH 500 0
DWIDTH 8 0
BBX 7 7 0 1
BITMAP
7C
82
BA
A2
BA
82
7C
ENDCHAR
STARTCHAR ordfeminine
ENCODING 170
SWIDTH 250 0
DWIDTH 4 0
BBX 3 5 0 4
BITMAP
E0
20
E0
A0
E0
ENDCHAR
STARTCHAR guillemotleft
ENCODING 171
SWIDTH 437 0
DWIDTH 7 0
BBX 6 5 0 2
BITMAP
24
48
90
48
24
ENDCHAR
STARTCHAR logicalnot
ENCODING 172
SWIDTH 500 0
DWIDTH 8 0
BBX 7 3 0 3
BITMAP
FE
02
02
ENDCHAR
STARTCHAR registered
ENCODING 174
SWIDTH 500 0
DWIDTH 8 0
BBX 7 7 0 1
BITMAP
7C
82
BA
A2
A2
82
7C
ENDCHAR
STARTCHAR macron
ENCODING 175
SWIDTH 500 0
DWIDTH 8 0
BBX 7 1 0 10
BITMAP
FE
ENDCHAR
STARTCHAR degree
ENCODING 176
SWIDTH 250 0
DWIDTH 4 0
BBX 3 3 0 6
BITMAP
40
A0
40
ENDCHAR
STARTCHAR plusminus
ENCODING 177
SWIDTH 500 0
DWIDTH 8 0
BBX 7 9 0 0
BITMAP
10
10
10
FE
10
10
10
00
FE
ENDCHAR
STARTCHAR uni00B2
ENCODING 178
SWIDTH 250 0
DWIDTH 4 0
BBX 3 5 0 4
BITMAP
E0
20
E0
80
E0
ENDCHAR
STARTCHAR uni00B3
ENCODING 179
SWIDTH 250 0
DWIDTH 4 0
BBX 3 5 0 4
BITMAP
E0
20
E0
20
E0
ENDCHAR
STARTCHAR acute
ENCODING 180
SWIDTH 187 0
DWIDTH 3 0
BBX 2 2 0 8
BITMAP
40
80
ENDCHAR
STARTCHAR uni00B5
ENCODING 181
SWIDTH 500 0
DWIDTH 8 0
BBX 7 11 0 -4
BITMAP
82
82
82
82
82
82
FE
80
80
80
80
ENDCHAR
STARTCHAR paragraph
ENCODING 182
SWIDTH 500 0
DWIDTH 8 0
BBX 7 9 0 0
BITMAP
7E
E4
E4
E4
64
24
24
24
24
ENDCHAR
STARTCHAR periodcentered
ENCODING 183
SWIDTH 125 0
DWIDTH 2 0
BBX 1 1 0 4
BITMAP
80
ENDCHAR
STARTCHAR cedilla
ENCODING 184
SWIDTH 250 0
DWIDTH 4 0
BBX 3 3 0 -3
BITMAP
40
20
C0
ENDCHAR
STARTCHAR uni00B9
ENCODING 185
SWIDTH 125 0
DWIDTH 2 0
BBX 1 5 0 4
BITMAP
80
80
80
80
80
ENDCHAR
STARTCHAR ordmasculine
ENCODING 186
SWIDTH 250 0
DWIDTH 4 0
BBX 3 5 0 4
BITMAP
E0
A0
A0
A0
E0
ENDCHAR
STARTCHAR guillemotright
ENCODING 187
SWIDTH 437 0
DWIDTH 7 0
BBX 6 5 0 1
BITMAP
90
48
24
48
90
ENDCHAR
STARTCHAR onequarter
ENCODING 188
SWIDTH 500 0
DWIDTH 8 0
BBX 7 9 0 0
BITMAP
82
82
84
08
10
20
4A
8E
82
ENDCHAR
STARTCHAR onehalf
ENCODING 189
SWIDTH 500 0
DWIDTH 8 0
BBX 7 9 0 0
BITMAP
82
82
84
08
10
24
42
84
8E
ENDCHAR
STARTCHAR threequarters
ENCODING 190
SWIDTH 500 0
DWIDTH 8 0
BBX 7 10 0 0
BITMAP
E0
22
E2
24
E8
10
20
4A
8E
82
ENDCHAR
STARTCHAR questiondown
ENCODING 191
SWIDTH 500 0
DWIDTH 8 0
BBX 7 9 0 0
BITMAP
10
00
10
20
40
80
82
44
38
ENDCHAR
STARTCHAR Agrave
ENCODING 192
SWIDTH 500 0
DWIDTH 8 0
BBX 7 12 0 0
BITMAP
20
10
00
10
10
28
28
44
7C
82
82
82
ENDCHAR
STARTCHAR Aacute
ENCODING 193
SWIDTH 500 0
DWIDTH 8 0
BBX 7 12 0 0
BITMAP
08
10
00
10
10
28
28
44
7C
82
82
82
ENDCHAR
STARTCHAR Acircumflex
ENCODING 194
SWIDTH 500 0
DWIDTH 8 0
BBX 7 12 0 0
BITMAP
10
28
00
10
10
28
28
44
7C
82
82
82
ENDCHAR
STARTCHAR Atilde
ENCODING 195
SWIDTH 500 0
DWIDTH 8 0
BBX 7 12 0 0
BITMAP
20
54
08
10
10
28
28
44
7C
82
82
82
ENDCHAR
STARTCHAR Adieresis
ENCODING 196
SWIDTH 500 0
DWIDTH 8 0
BBX 7 11 0 0
BITMAP
28
00
10
10
28
28
44
7C
82
82
82
ENDCHAR
STARTCHAR Aring
ENCODING 197
SWIDTH 500 0
DWIDTH 8 0
BBX 7 11 0 0
BITMAP
10
28
10
10
28
28
44
7C
82
82
82
ENDCHAR
STARTCHAR AE
ENCODING 198
SWIDTH 500 0
DWIDTH 8 0
BBX 7 9 0 0
BITMAP
1E
10
30
30
5E
70
90
90
9E
ENDCHAR
STARTCHAR Ccedilla
ENCODING 199
SWIDTH 500 0
DWIDTH 8 0
BBX 7 12 0 -3
BITMAP
38
44
82
80
80
80
82
44
38
10
08
30
ENDCHAR
STARTCHAR Egrave
ENCODING 200
SWIDTH 500 0
DWIDTH 8 0
BBX 7 12 0 0
BITMAP
20
10
00
FE
80
80
80
FC
80
80
80
FE
ENDCHAR
STARTCHAR Eacute
ENCODING 201
SWIDTH 500 0
DWIDTH 8 0
BBX 7 12 0 0
BITMAP
20
10
00
FE
80
80
80
FC
80
80
80
FE
ENDCHAR
STARTCHAR Ecircumflex
ENCODING 202
SWIDTH 500 0
DWIDTH 8 0
BBX 7 12 0 0
BITMAP
10
28
00
FE
80
80
80
FC
80
80
80
FE
ENDCHAR
STARTCHAR Edieresis
ENCODING 203
SWIDTH 500 0
DWIDTH 8 0
BBX 7 11 0 0
BITMAP
28
00
FE
80
80
80
FC
80
80
80
FE
ENDCHAR
STARTCHAR Igrave
ENCODING 204
SWIDTH 250 0
DWIDTH 4 0
BBX 3 12 0 0
BITMAP
80
40
00
E0
40
40
40
40
40
40
40
E0
ENDCHAR
STARTCHAR Iacute
ENCODING 205
SWIDTH 250 0
DWIDTH 4 0
BBX 3 12 0 0
BITMAP
20
40
00
E0
40
40
40
40
40
40
40
E0
ENDCHAR
STARTCHAR Icircumflex
ENCODING 206
SWIDTH 250 0
DWIDTH 4 0
BBX 3 12 0 0
BITMAP
40
A0
00
E0
40
40
40
40
40
40
40
E0
ENDCHAR
STARTCHAR Idieresis
ENCODING 207
SWIDTH 250 0
DWIDTH 4 0
BBX 3 11 0 0
BITMAP
A0
00
E0
40
40
40
40
40
40
40
E0
ENDCHAR
STARTCHAR Eth
ENCODING 208
SWIDTH 500 0
DWIDTH 8 0
BBX 7 9 0 0
BITMAP
78
44
42
42
F2
42
42
44
78
ENDCHAR
STARTCHAR Ntilde
ENCODING 209
SWIDTH 500 0
DWIDTH 8 0
BBX 7 12 0 0
BITMAP
20
54
08
82
C2
A2
92
8A
86
82
82
82
ENDCHAR
STARTCHAR Ograve
ENCODING 210
SWIDTH 500 0
DWIDTH 8 0
BBX 7 12 0 0
BITMAP
20
10
00
38
44
82
82
82
82
82
44
38
ENDCHAR
STARTCHAR Oacute
ENCODING 211
SWIDTH 500 0
DWIDTH 8 0
BBX 7 12 0 0
BITMAP
08
10
00
38
44
82
82
82
82
82
44
38
ENDCHAR
STARTCHAR Ocircumflex
ENCODING 212
SWIDTH 500 0
DWIDTH 8 0
BBX 7 12 0 0
BITMAP
10
28
00
38
44
82
82
82
82
82
44
38
ENDCHAR
STARTCHAR Otilde
ENCODING 213
SWIDTH 500 0
DWIDTH 8 0
BBX 7 12 0 0
BITMAP
20
54
08
38
44
82
82
82
82
82
44
38
ENDCHAR
STARTCHAR Odieresis
ENCODING 214
SWIDTH 500 0
DWIDTH 8 0
BBX 7 11 0 0
BITMAP
28
00
38
44
82
82
82
82
82
44
38
ENDCHAR
STARTCHAR multiply
ENCODING 215
SWIDTH 500 0
DWIDTH 8 0
BBX 7 7 0 1
BITMAP
82
44
28
10
28
44
82
ENDCHAR
STARTCHAR Oslash
ENCODING 216
SWIDTH 562 0
DWIDTH 9 0
BBX 8 10 0 -1
BITMAP
01
3E
46
4A
4A
52
52
62
7C
80
ENDCHAR
STARTCHAR Ugrave
ENCODING 217
SWIDTH 500 0
DWIDTH 8 0
BBX 7 12 0 0
BITMAP
20
10
00
82
82
82
82
82
82
82
44
38
ENDCHAR
STARTCHAR Uacute
ENCODING 218
SWIDTH 500 0
DWIDTH 8 0
BBX 7 12 0 0
BITMAP
08
10
00
82
82
82
82
82
82
82
44
38
ENDCHAR
STARTCHAR Ucircumflex
ENCODING 219
SWIDTH 500 0
DWIDTH 8 0
BBX 7 12 0 0
BITMAP
10
28
00
82
82
82
82
82
82
82
44
38
ENDCHAR
STARTCHAR Udieresis
ENCODING 220
SWIDTH 500 0
DWIDTH 8 0
BBX 7 11 0 0
BITMAP
28
00
82
82
82
82
82
82
82
44
38
ENDCHAR
STARTCHAR Yacute
ENCODING 221
SWIDTH 500 0
DWIDTH 8 0
BBX 7 12 0 0
BITMAP
08
10
00
82
44
28
10
10
10
10
10
10
ENDCHAR
STARTCHAR Thorn
ENCODING 222
SWIDTH 500 0
DWIDTH 8 0
BBX 7 9 0 0
BITMAP
80
80
FC
82
82
82
FC
80
80
ENDCHAR
STARTCHAR germandbls
ENCODING 223
SWIDTH 500 0
DWIDTH 8 0
BBX 7 9 0 0
BITMAP
7C
82
82
84
88
84
82
A2
9C
ENDCHAR
STARTCHAR agrave
ENCODING 224
SWIDTH 500 0
DWIDTH 8 0
BBX 7 10 0 0
BITMAP
20
10
00
78
84
04
7C
84
84
7A
ENDCHAR
STARTCHAR aacute
ENCODING 225
SWIDTH 500 0
DWIDTH 8 0
BBX 7 10 0 0
BITMAP
08
10
00
78
84
04
7C
84
84
7A
ENDCHAR
STARTCHAR acircumflex
ENCODING 226
SWIDTH 500 0
DWIDTH 8 0
BBX 7 10 0 0
BITMAP
10
28
00
78
84
04
7C
84
84
7A
ENDCHAR
STARTCHAR atilde
ENCODING 227
SWIDTH 500 0
DWIDTH 8 0
BBX 7 11 0 0
BITMAP
20
54
08
00
78
84
04
7C
84
84
7A
ENDCHAR
STARTCHAR adieresis
ENCODING 228
SWIDTH 500 0
DWIDTH 8 0
BBX 7 9 0 0
BITMAP
28
00
78
84
04
7C
84
84
7A
ENDCHAR
STARTCHAR aring
ENCODING 229
SWIDTH 500 0
DWIDTH 8 0
BBX 7 11 0 0
BITMAP
10
28
10
00
78
84
04
7C
84
84
7A
ENDCHAR
STARTCHAR ae
ENCODING 230
SWIDTH 500 0
DWIDTH 8 0
BBX 7 7 0 0
BITMAP
6C
92
12
7C
90
92
6C
ENDCHAR
STARTCHAR ccedilla
ENCODING 231
SWIDTH 500 0
DWIDTH 8 0
BBX 7 10 0 -3
BITMAP
7C
82
80
80
80
82
7C
10
08
30
ENDCHAR
STARTCHAR egrave
ENCODING 232
SWIDTH 500 0
DWIDTH 8 0
BBX 7 10 0 0
BITMAP
20
10
00
7C
82
82
FC
80
82
7C
ENDCHAR
STARTCHAR eacute
ENCODING 233
SWIDTH 500 0
DWIDTH 8 0
BBX 7 10 0 0
BITMAP
08
10
00
7C
82
82
FC
80
82
7C
ENDCHAR
STARTCHAR ecircumflex
ENCODING 234
SWIDTH 500 0
DWIDTH 8 0
BBX 7 10 0 0
BITMAP
10
28
00
7C
82
82
FC
80
82
7C
ENDCHAR
STARTCHAR edieresis
ENCODING 235
SWIDTH 500 0
DWIDTH 8 0
BBX 7 9 0 0
BITMAP
28
00
7C
82
82
FC
80
82
7C
ENDCHAR
STARTCHAR igrave
ENCODING 236
SWIDTH 187 0
DWIDTH 3 0
BBX 2 10 0 0
BITMAP
80
40
00
40
40
40
40
40
40
40
ENDCHAR
STARTCHAR iacute
ENCODING 237
SWIDTH 187 0
DWIDTH 3 0
BBX 2 10 0 0
BITMAP
40
80
00
80
80
80
80
80
80
80
ENDCHAR
STARTCHAR icircumflex
ENCODING 238
SWIDTH 250 0
DWIDTH 4 0
BBX 3 10 0 0
BITMAP
40
A0
00
40
40
40
40
40
40
40
ENDCHAR
STARTCHAR idieresis
ENCODING 239
SWIDTH 250 0
DWIDTH 4 0
BBX 3 9 0 0
BITMAP
A0
00
40
40
40
40
40
40
40
ENDCHAR
STARTCHAR eth
ENCODING 240
SWIDTH 562 0
DWIDTH 9 0
BBX 8 9 0 0
BITMAP
04
1F
02
7E
82
82
82
82
7C
ENDCHAR
STARTCHAR ntilde
ENCODING 241
SWIDTH 500 0
DWIDTH 8 0
BBX 7 11 0 0
BITMAP
20
54
08
00
FC
82
82
82
82
82
82
ENDCHAR
STARTCHAR ograve
ENCODING 242
SWIDTH 500 0
DWIDTH 8 0
BBX 7 10 0 0
BITMAP
20
10
00
7C
82
82
82
82
82
7C
ENDCHAR
STARTCHAR oacute
ENCODING 243
SWIDTH 500 0
DWIDTH 8 0
BBX 7 10 0 0
BITMAP
08
10
00
7C
82
82
82
82
82
7C
ENDCHAR
STARTCHAR ocircumflex
ENCODING 244
SWIDTH 500 0
DWIDTH 8 0
BBX 7 10 0 0
BITMAP
10
28
00
7C
82
82
82
82
82
7C
ENDCHAR
STARTCHAR otilde
ENCODING 245
SWIDTH 500 0
DWIDTH 8 0
BBX 7 11 0 0
BITMAP
20
54
08
00
7C
82
82
82
82
82
7C
ENDCHAR
STARTCHAR odieresis
ENCODING 246
SWIDTH 500 0
DWIDTH 8 0
BBX 7 9 0 0
BITMAP
28
00
7C
82
82
82
82
82
7C
ENDCHAR
STARTCHAR divide
ENCODING 247
SWIDTH 500 0
DWIDTH 8 0
BBX 7 5 0 2
BITMAP
10
00
FE
00
10
ENDCHAR
STARTCHAR oslash
ENCODING 248
SWIDTH 625 0
DWIDTH 10 0
BBX 9 9 0 -1
BITMAP
0080
3F00
4300
4500
4900
5100
6100
7E00
8000
ENDCHAR
STARTCHAR ugrave
ENCODING 249
SWIDTH 500 0
DWIDTH 8 0
BBX 7 10 0 0
BITMAP
20
10
00
82
82
82
82
82
82
7E
ENDCHAR
STARTCHAR uacute
ENCODING 250
SWIDTH 500 0
DWIDTH 8 0
BBX 7 10 0 0
BITMAP
08
10
00
82
82
82
82
82
82
7E
ENDCHAR
STARTCHAR ucircumflex
ENCODING 251
SWIDTH 500 0
DWIDTH 8 0
BBX 7 10 0 0
BITMAP
10
28
00
82
82
82
82
82
82
7E
ENDCHAR
STARTCHAR udieresis
ENCODING 252
SWIDTH 500 0
DWIDTH 8 0
BBX 7 9 0 0
BITMAP
28
00
82
82
82
82
82
82
7E
ENDCHAR
STARTCHAR yacute
ENCODING 253
SWIDTH 500 0
DWIDTH 8 0
BBX 7 14 0 -4
BITMAP
08
10
00
82
82
82
82
82
82
7E
02
02
82
7C
ENDCHAR
STARTCHAR thorn
ENCODING 254
SWIDTH 500 0
DWIDTH 8 0
BBX 7 11 0 -2
BITMAP
80
80
FC
82
82
82
82
82
FC
80
80
ENDCHAR
STARTCHAR ydieresis
ENCODING 255
SWIDTH 500 0
DWIDTH 8 0
BBX 7 13 0 -4
BITMAP
28
00
82
82
82
82
82
82
7E
02
02
82
7C
ENDCHAR
STARTCHAR Amacron
ENCODING 256
SWIDTH 500 0
DWIDTH 8 0
BBX 7 11 0 0
BITMAP
38
00
10
10
28
28
44
7C
82
82
82
ENDCHAR
STARTCHAR amacron
ENCODING 257
SWIDTH 500 0
DWIDTH 8 0
BBX 7 9 0 0
BITMAP
38
00
78
84
04
7C
84
84
7A
ENDCHAR
STARTCHAR Abreve
ENCODING 258
SWIDTH 500 0
DWIDTH 8 0
BBX 7 12 0 0
BITMAP
28
38
00
10
10
28
28
44
7C
82
82
82
ENDCHAR
STARTCHAR abreve
ENCODING 259
SWIDTH 500 0
DWIDTH 8 0
BBX 7 10 0 0
BITMAP
28
38
00
78
84
04
7C
84
84
7A
ENDCHAR
STARTCHAR Aogonek
ENCODING 260
SWIDTH 562 0
DWIDTH 9 0
BBX 8 12 0 -3
BITMAP
10
10
28
28
44
7C
82
82
82
02
04
03
ENDCHAR
STARTCHAR aogonek
ENCODING 261
SWIDTH 562 0
DWIDTH 9 0
BBX 8 10 0 -3
BITMAP
78
84
04
7C
84
84
7A
02
04
03
ENDCHAR
STARTCHAR Cacute
ENCODING 262
SWIDTH 500 0
DWIDTH 8 0
BBX 7 12 0 0
BITMAP
08
10
00
38
44
82
80
80
80
82
44
38
ENDCHAR
STARTCHAR cacute
ENCODING 263
SWIDTH 500 0
DWIDTH 8 0
BBX 7 10 0 0
BITMAP
08
10
00
7C
82
80
80
80
82
7C
ENDCHAR
STARTCHAR Ccircumflex
ENCODING 264
SWIDTH 500 0
DWIDTH 8 0
BBX 7 12 0 0
BITMAP
10
28
00
38
44
82
80
80
80
82
44
38
ENDCHAR
STARTCHAR ccircumflex
ENCODING 265
SWIDTH 500 0
DWIDTH 8 0
BBX 7 10 0 0
BITMAP
10
28
00
7C
82
80
80
80
82
7C
ENDCHAR
STARTCHAR Cdotaccent
ENCODING 266
SWIDTH 500 0
DWIDTH 8 0
BBX 7 11 0 0
BITMAP
10
00
38
44
82
80
80
80
82
44
38
ENDCHAR
STARTCHAR cdotaccent
ENCODING 267
SWIDTH 500 0
DWIDTH 8 0
BBX 7 9 0 0
BITMAP
10
00
7C
82
80
80
80
82
7C
ENDCHAR
STARTCHAR Ccaron
ENCODING 268
SWIDTH 500 0
DWIDTH 8 0
BBX 7 12 0 0
BITMAP
28
10
00
38
44
82
80
80
80
82
44
38
ENDCHAR
STARTCHAR ccaron
ENCODING 269
SWIDTH 500 0
DWIDTH 8 0
BBX 7 10 0 0
BITMAP
28
10
00
7C
82
80
80
80
82
7C
ENDCHAR
STARTCHAR Dcaron
ENCODING 270
SWIDTH 500 0
DWIDTH 8 0
BBX 7 12 0 0
BITMAP
28
10
00
F8
84
82
82
82
82
82
84
F8
ENDCHAR
STARTCHAR dcaron
ENCODING 271
SWIDTH 625 0
DWIDTH 10 0
BBX 9 9 0 0
BITMAP
0280
0280
7E80
8200
8200
8200
8200
8200
7E00
ENDCHAR
STARTCHAR Dcroat
ENCODING 272
SWIDTH 500 0
DWIDTH 8 0
BBX 7 9 0 0
BITMAP
78
44
42
42
F2
42
42
44
78
ENDCHAR
STARTCHAR dcroat
ENCODING 273
SWIDTH 562 0
DWIDTH 9 0
BBX 8 9 0 0
BITMAP
0F
02
7E
82
82
82
82
82
7E
ENDCHAR
STARTCHAR Emacron
ENCODING 274
SWIDTH 500 0
DWIDTH 8 0
BBX 7 11 0 0
BITMAP
38
00
FE
80
80
80
FC
80
80
80
FE
ENDCHAR
STARTCHAR emacron
ENCODING 275
SWIDTH 500 0
DWIDTH 8 0
BBX 7 9 0 0
BITMAP
38
00
7C
82
82
FC
80
82
7C
ENDCHAR
STARTCHAR Ebreve
ENCODING 276
SWIDTH 500 0
DWIDTH 8 0
BBX 7 12 0 0
BITMAP
28
38
00
FE
80
80
80
FC
80
80
80
FE
ENDCHAR
STARTCHAR ebreve
ENCODING 277
SWIDTH 500 0
DWIDTH 8 0
BBX 7 10 0 0
BITMAP
28
38
00
7C
82
82
FC
80
82
7C
ENDCHAR
STARTCHAR Edotaccent
ENCODING 278
SWIDTH 500 0
DWIDTH 8 0
BBX 7 11 0 0
BITMAP
10
00
FE
80
80
80
FC
80
80
80
FE
ENDCHAR
STARTCHAR edotaccent
ENCODING 279
SWIDTH 500 0
DWIDTH 8 0
BBX 7 9 0 0
BITMAP
10
00
7C
82
82
FC
80
82
7C
ENDCHAR
STARTCHAR Eogonek
ENCODING 280
SWIDTH 562 0
DWIDTH 9 0
BBX 8 12 0 -3
BITMAP
FE
80
80
80
FC
80
80
80
FE
02
04
03
ENDCHAR
STARTCHAR eogonek
ENCODING 281
SWIDTH 500 0
DWIDTH 8 0
BBX 7 10 0 -3
BITMAP
7C
82
82
FC
80
82
7C
10
20
18
ENDCHAR
STARTCHAR Ecaron
ENCODING 282
SWIDTH 500 0
DWIDTH 8 0
BBX 7 12 0 0
BITMAP
28
10
00
FE
80
80
80
FC
80
80
80
FE
ENDCHAR
STARTCHAR ecaron
ENCODING 283
SWIDTH 500 0
DWIDTH 8 0
BBX 7 10 0 0
BITMAP
28
10
00
7C
82
82
FC
80
82
7C
ENDCHAR
STARTCHAR Gcircumflex
ENCODING 284
SWIDTH 500 0
DWIDTH 8 0
BBX 7 12 0 0
BITMAP
10
28
00
7C
82
82
80
80
8E
82
82
7C
ENDCHAR
STARTCHAR gcircumflex
ENCODING 285
SWIDTH 500 0
DWIDTH 8 0
BBX 7 14 0 -4
BITMAP
10
28
00
7E
82
82
82
82
82
7E
02
02
82
7C
ENDCHAR
STARTCHAR Gbreve
ENCODING 286
SWIDTH 500 0
DWIDTH 8 0
BBX 7 12 0 0
BITMAP
28
38
00
7C
82
82
80
80
8E
82
82
7C
ENDCHAR
STARTCHAR gbreve
ENCODING 287
SWIDTH 500 0
DWIDTH 8 0
BBX 7 14 0 -4
BITMAP
28
38
00
7E
82
82
82
82
82
7E
02
02
82
7C
ENDCHAR
STARTCHAR Gdotaccent
ENCODING 288
SWIDTH 500 0
DWIDTH 8 0
BBX 7 11 0 0
BITMAP
10
00
7C
82
82
80
80
8E
82
82
7C
ENDCHAR
STARTCHAR gdotaccent
ENCODING 289
SWIDTH 500 0
DWIDTH 8 0
BBX 7 13 0 -4
BITMAP
10
00
7E
82
82
82
82
82
7E
02
02
82
7C
ENDCHAR
STARTCHAR Gcommaaccent
ENCODING 290
SWIDTH 500 0
DWIDTH 8 0
BBX 7 13 0 -4
BITMAP
7C
82
82
80
80
8E
82
82
7C
00
10
08
30
ENDCHAR
STARTCHAR gcommaaccent
ENCODING 291
SWIDTH 500 0
DWIDTH 8 0
BBX 7 15 0 -4
BITMAP
10
10
10
00
7E
82
82
82
82
82
7E
02
02
82
7C
ENDCHAR
STARTCHAR Hcircumflex
ENCODING 292
SWIDTH 500 0
DWIDTH 8 0
BBX 7 12 0 0
BITMAP
10
28
00
82
82
82
82
FE
82
82
82
82
ENDCHAR
STARTCHAR hcircumflex
ENCODING 293
SWIDTH 500 0
DWIDTH 8 0
BBX 7 12 0 0
BITMAP
10
28
00
80
80
FC
82
82
82
82
82
82
ENDCHAR
STARTCHAR Hbar
ENCODING 294
SWIDTH 625 0
DWIDTH 10 0
BBX 9 9 0 0
BITMAP
4100
FF80
4100
4100
7F00
4100
4100
4100
4100
ENDCHAR
STARTCHAR hbar
ENCODING 295
SWIDTH 562 0
DWIDTH 9 0
BBX 8 9 0 0
BITMAP
F0
40
7E
41
41
41
41
41
41
ENDCHAR
STARTCHAR Itilde
ENCODING 296
SWIDTH 375 0
DWIDTH 6 0
BBX 5 12 0 0
BITMAP
40
A8
10
70
20
20
20
20
20
20
20
70
ENDCHAR
STARTCHAR itilde
ENCODING 297
SWIDTH 375 0
DWIDTH 6 0
BBX 5 10 0 0
BITMAP
40
A8
10
20
20
20
20
20
20
20
ENDCHAR
STARTCHAR Imacron
ENCODING 298
SWIDTH 250 0
DWIDTH 4 0
BBX 3 11 0 0
BITMAP
E0
00
E0
40
40
40
40
40
40
40
E0
ENDCHAR
STARTCHAR imacron
ENCODING 299
SWIDTH 250 0
DWIDTH 4 0
BBX 3 9 0 0
BITMAP
E0
00
40
40
40
40
40
40
40
ENDCHAR
STARTCHAR Ibreve
ENCODING 300
SWIDTH 250 0
DWIDTH 4 0
BBX 3 12 0 0
BITMAP
A0
E0
00
E0
40
40
40
40
40
40
40
E0
ENDCHAR
STARTCHAR ibreve
ENCODING 301
SWIDTH 250 0
DWIDTH 4 0
BBX 3 10 0 0
BITMAP
A0
E0
00
40
40
40
40
40
40
40
ENDCHAR
STARTCHAR Iogonek
ENCODING 302
SWIDTH 250 0
DWIDTH 4 0
BBX 3 12 0 -3
BITMAP
E0
40
40
40
40
40
40
40
E0
40
80
60
ENDCHAR
STARTCHAR iogonek
ENCODING 303
SWIDTH 250 0
DWIDTH 4 0
BBX 3 12 0 -3
BITMAP
40
00
40
40
40
40
40
40
40
40
80
60
ENDCHAR
STARTCHAR Idotaccent
ENCODING 304
SWIDTH 250 0
DWIDTH 4 0
BBX 3 11 0 0
BITMAP
40
00
E0
40
40
40
40
40
40
40
E0
ENDCHAR
STARTCHAR dotlessi
ENCODING 305
SWIDTH 125 0
DWIDTH 2 0
BBX 1 7 0 0
BITMAP
80
80
80
80
80
80
80
ENDCHAR
STARTCHAR IJ
ENCODING 306
SWIDTH 500 0
DWIDTH 8 0
BBX 7 9 0 0
BITMAP
8E
84
84
84
84
84
84
A4
98
ENDCHAR
STARTCHAR ij
ENCODING 307
SWIDTH 312 0
DWIDTH 5 0
BBX 4 13 0 -4
BITMAP
90
00
B0
90
90
90
90
90
90
10
10
10
20
ENDCHAR
STARTCHAR Jcircumflex
ENCODING 308
SWIDTH 500 0
DWIDTH 8 0
BBX 7 12 0 0
BITMAP
08
14
00
3E
08
08
08
08
08
08
88
70
ENDCHAR
STARTCHAR jcircumflex
ENCODING 309
SWIDTH 250 0
DWIDTH 4 0
BBX 3 14 0 -4
BITMAP
40
A0
00
C0
40
40
40
40
40
40
40
40
40
80
ENDCHAR
STARTCHAR Kcommaaccent
ENCODING 310
SWIDTH 500 0
DWIDTH 8 0
BBX 7 12 0 -3
BITMAP
82
84
88
90
E0
90
88
84
82
10
08
30
ENDCHAR
STARTCHAR kcommaaccent
ENCODING 311
SWIDTH 500 0
DWIDTH 8 0
BBX 7 12 0 -3
BITMAP
80
80
82
84
88
F0
88
84
82
10
08
30
ENDCHAR
STARTCHAR kgreenlandic
ENCODING 312
SWIDTH 500 0
DWIDTH 8 0
BBX 7 7 0 0
BITMAP
82
84
88
F0
88
84
82
ENDCHAR
STARTCHAR Lacute
ENCODING 313
SWIDTH 500 0
DWIDTH 8 0
BBX 7 12 0 0
BITMAP
40
80
00
80
80
80
80
80
80
80
80
FE
ENDCHAR
STARTCHAR lacute
ENCODING 314
SWIDTH 187 0
DWIDTH 3 0
BBX 2 12 0 0
BITMAP
40
80
00
80
80
80
80
80
80
80
80
80
ENDCHAR
STARTCHAR Lcommaaccent
ENCODING 315
SWIDTH 500 0
DWIDTH 8 0
BBX 7 13 0 -4
BITMAP
80
80
80
80
80
80
80
80
FE
00
10
08
30
ENDCHAR
STARTCHAR lcommaaccent
ENCODING 316
SWIDTH 250 0
DWIDTH 4 0
BBX 3 13 0 -4
BITMAP
40
40
40
40
40
40
40
40
40
00
40
20
C0
ENDCHAR
STARTCHAR Lcaron
ENCODING 317
SWIDTH 500 0
DWIDTH 8 0
BBX 7 9 0 0
BITMAP
A0
A0
A0
80
80
80
80
80
FE
ENDCHAR
STARTCHAR lcaron
ENCODING 318
SWIDTH 250 0
DWIDTH 4 0
BBX 3 9 0 0
BITMAP
A0
A0
A0
80
80
80
80
80
80
ENDCHAR
STARTCHAR Ldot
ENCODING 319
SWIDTH 500 0
DWIDTH 8 0
BBX 7 9 0 0
BITMAP
80
80
80
80
90
80
80
80
FE
ENDCHAR
STARTCHAR ldot
ENCODING 320
SWIDTH 250 0
DWIDTH 4 0
BBX 3 9 0 0
BITMAP
80
80
80
80
A0
80
80
80
80
ENDCHAR
STARTCHAR Lslash
ENCODING 321
SWIDTH 500 0
DWIDTH 8 0
BBX 7 9 0 0
BITMAP
40
40
40
40
70
C0
40
40
7E
ENDCHAR
STARTCHAR lslash
ENCODING 322
SWIDTH 250 0
DWIDTH 4 0
BBX 3 9 0 0
BITMAP
40
40
40
40
60
C0
40
40
40
ENDCHAR
STARTCHAR Nacute
ENCODING 323
SWIDTH 500 0
DWIDTH 8 0
BBX 7 11 0 0
BITMAP
08
10
82
C2
A2
92
8A
86
82
82
82
ENDCHAR
STARTCHAR nacute
ENCODING 324
SWIDTH 500 0
DWIDTH 8 0
BBX 7 10 0 0
BITMAP
08
10
00
FC
82
82
82
82
82
82
ENDCHAR
STARTCHAR Ncommaaccent
ENCODING 325
SWIDTH 500 0
DWIDTH 8 0
BBX 7 12 0 -3
BITMAP
82
C2
A2
92
8A
86
82
82
82
10
08
30
ENDCHAR
STARTCHAR ncommaaccent
ENCODING 326
SWIDTH 500 0
DWIDTH 8 0
BBX 7 10 0 -3
BITMAP
FC
82
82
82
82
82
82
10
08
30
ENDCHAR
STARTCHAR Ncaron
ENCODING 327
SWIDTH 500 0
DWIDTH 8 0
BBX 7 11 0 0
BITMAP
28
10
82
C2
A2
92
8A
86
82
82
82
ENDCHAR
STARTCHAR ncaron
ENCODING 328
SWIDTH 500 0
DWIDTH 8 0
BBX 7 10 0 0
BITMAP
28
10
00
FC
82
82
82
82
82
82
ENDCHAR
STARTCHAR napostrophe
ENCODING 329
SWIDTH 625 0
DWIDTH 10 0
BBX 9 9 0 0
BITMAP
8000
8000
BF00
2080
2080
2080
2080
2080
2080
ENDCHAR
STARTCHAR Eng
ENCODING 330
SWIDTH 500 0
DWIDTH 8 0
BBX 7 9 0 0
BITMAP
BC
C2
82
82
82
82
82
92
8C
ENDCHAR
STARTCHAR eng
ENCODING 331
SWIDTH 500 0
DWIDTH 8 0
BBX 7 9 0 -2
BITMAP
FC
82
82
82
82
82
82
02
0C
ENDCHAR
STARTCHAR Omacron
ENCODING 332
SWIDTH 500 0
DWIDTH 8 0
BBX 7 11 0 0
BITMAP
38
00
38
44
82
82
82
82
82
44
38
ENDCHAR
STARTCHAR omacron
ENCODING 333
SWIDTH 500 0
DWIDTH 8 0
BBX 7 9 0 0
BITMAP
38
00
7C
82
82
82
82
82
7C
ENDCHAR
STARTCHAR Obreve
ENCODING 334
SWIDTH 500 0
DWIDTH 8 0
BBX 7 12 0 0
BITMAP
28
38
00
38
44
82
82
82
82
82
44
38
ENDCHAR
STARTCHAR obreve
ENCODING 335
SWIDTH 500 0
DWIDTH 8 0
BBX 7 10 0 0
BITMAP
28
38
00
7C
82
82
82
82
82
7C
ENDCHAR
STARTCHAR Ohungarumlaut
ENCODING 336
SWIDTH 500 0
DWIDTH 8 0
BBX 7 12 0 0
BITMAP
24
48
00
38
44
82
82
82
82
82
44
38
ENDCHAR
STARTCHAR ohungarumlaut
ENCODING 337
SWIDTH 500 0
DWIDTH 8 0
BBX 7 10 0 0
BITMAP
24
48
00
7C
82
82
82
82
82
7C
ENDCHAR
STARTCHAR OE
ENCODING 338
SWIDTH 562 0
DWIDTH 9 0
BBX 8 9 0 0
BITMAP
37
48
88
88
8F
88
88
48
37
ENDCHAR
STARTCHAR oe
ENCODING 339
SWIDTH 500 0
DWIDTH 8 0
BBX 7 7 0 0
BITMAP
6C
92
92
9C
90
92
6C
ENDCHAR
STARTCHAR Racute
ENCODING 340
SWIDTH 500 0
DWIDTH 8 0
BBX 7 12 0 0
BITMAP
08
10
00
FC
82
82
82
FC
90
88
84
82
ENDCHAR
STARTCHAR racute
ENCODING 341
SWIDTH 500 0
DWIDTH 8 0
BBX 7 10 0 0
BITMAP
08
10
00
BC
C2
80
80
80
80
80
ENDCHAR
STARTCHAR Rcommaaccent
ENCODING 342
SWIDTH 500 0
DWIDTH 8 0
BBX 7 12 0 -3
BITMAP
FC
82
82
82
FC
90
88
84
82
10
08
30
ENDCHAR
STARTCHAR rcommaaccent
ENCODING 343
SWIDTH 562 0
DWIDTH 9 0
BBX 8 11 0 -4
BITMAP
5E
61
40
40
40
40
40
00
40
20
C0
ENDCHAR
STARTCHAR Rcaron
ENCODING 344
SWIDTH 500 0
DWIDTH 8 0
BBX 7 12 0 0
BITMAP
28
10
00
FC
82
82
82
FC
90
88
84
82
ENDCHAR
STARTCHAR rcaron
ENCODING 345
SWIDTH 500 0
DWIDTH 8 0
BBX 7 10 0 0
BITMAP
28
10
00
BC
C2
80
80
80
80
80
ENDCHAR
STARTCHAR Sacute
ENCODING 346
SWIDTH 500 0
DWIDTH 8 0
BBX 7 12 0 0
BITMAP
08
10
00
7C
82
80
80
7C
02
02
82
7C
ENDCHAR
STARTCHAR sacute
ENCODING 347
SWIDTH 500 0
DWIDTH 8 0
BBX 7 10 0 0
BITMAP
08
10
00
7C
82
80
7C
02
82
7C
ENDCHAR
STARTCHAR Scircumflex
ENCODING 348
SWIDTH 500 0
DWIDTH 8 0
BBX 7 12 0 0
BITMAP
10
28
00
7C
82
80
80
7C
02
02
82
7C
ENDCHAR
STARTCHAR scircumflex
ENCODING 349
SWIDTH 500 0
DWIDTH 8 0
BBX 7 10 0 0
BITMAP
10
28
00
7C
82
80
7C
02
82
7C
ENDCHAR
STARTCHAR Scedilla
ENCODING 350
SWIDTH 500 0
DWIDTH 8 0
BBX 7 12 0 -3
BITMAP
7C
82
80
80
7C
02
02
82
7C
10
08
30
ENDCHAR
STARTCHAR scedilla
ENCODING 351
SWIDTH 500 0
DWIDTH 8 0
BBX 7 10 0 -3
BITMAP
7C
82
80
7C
02
82
7C
10
08
30
ENDCHAR
STARTCHAR Scaron
ENCODING 352
SWIDTH 500 0
DWIDTH 8 0
BBX 7 12 0 0
BITMAP
28
10
00
7C
82
80
80
7C
02
02
82
7C
ENDCHAR
STARTCHAR scaron
ENCODING 353
SWIDTH 500 0
DWIDTH 8 0
BBX 7 10 0 0
BITMAP
28
10
00
7C
82
80
7C
02
82
7C
ENDCHAR
STARTCHAR Tcommaaccent
ENCODING 354
SWIDTH 500 0
DWIDTH 8 0
BBX 7 12 0 -3
BITMAP
FE
10
10
10
10
10
10
10
10
10
08
30
ENDCHAR
STARTCHAR tcommaaccent
ENCODING 355
SWIDTH 312 0
DWIDTH 5 0
BBX 4 10 0 -3
BITMAP
40
E0
40
40
40
40
30
20
10
60
ENDCHAR
STARTCHAR Tcaron
ENCODING 356
SWIDTH 500 0
DWIDTH 8 0
BBX 7 12 0 0
BITMAP
28
10
00
FE
10
10
10
10
10
10
10
10
ENDCHAR
STARTCHAR tcaron
ENCODING 357
SWIDTH 375 0
DWIDTH 6 0
BBX 5 7 0 0
BITMAP
48
E8
48
40
40
40
30
ENDCHAR
STARTCHAR Tbar
ENCODING 358
SWIDTH 500 0
DWIDTH 8 0
BBX 7 9 0 0
BITMAP
FE
10
10
10
7C
10
10
10
10
ENDCHAR
STARTCHAR tbar
ENCODING 359
SWIDTH 312 0
DWIDTH 5 0
BBX 4 7 0 0
BITMAP
40
E0
40
E0
40
40
30
ENDCHAR
STARTCHAR Utilde
ENCODING 360
SWIDTH 500 0
DWIDTH 8 0
BBX 7 12 0 0
BITMAP
20
54
08
82
82
82
82
82
82
82
44
38
ENDCHAR
STARTCHAR utilde
ENCODING 361
SWIDTH 500 0
DWIDTH 8 0
BBX 7 10 0 0
BITMAP
20
54
08
82
82
82
82
82
82
7E
ENDCHAR
STARTCHAR Umacron
ENCODING 362
SWIDTH 500 0
DWIDTH 8 0
BBX 7 10 0 0
BITMAP
38
82
82
82
82
82
82
82
44
38
ENDCHAR
STARTCHAR umacron
ENCODING 363
SWIDTH 500 0
DWIDTH 8 0
BBX 7 9 0 0
BITMAP
38
00
82
82
82
82
82
82
7E
ENDCHAR
STARTCHAR Ubreve
ENCODING 364
SWIDTH 500 0
DWIDTH 8 0
BBX 7 11 0 0
BITMAP
28
38
82
82
82
82
82
82
82
44
38
ENDCHAR
STARTCHAR ubreve
ENCODING 365
SWIDTH 500 0
DWIDTH 8 0
BBX 7 9 0 0
BITMAP
28
38
82
82
82
82
82
82
7E
ENDCHAR
STARTCHAR Uring
ENCODING 366
SWIDTH 500 0
DWIDTH 8 0
BBX 7 12 0 0
BITMAP
10
28
10
82
82
82
82
82
82
82
44
38
ENDCHAR
STARTCHAR uring
ENCODING 367
SWIDTH 500 0
DWIDTH 8 0
BBX 7 10 0 0
BITMAP
10
28
10
82
82
82
82
82
82
7E
ENDCHAR
STARTCHAR Uhungarumlaut
ENCODING 368
SWIDTH 500 0
DWIDTH 8 0
BBX 7 12 0 0
BITMAP
24
48
00
82
82
82
82
82
82
82
44
38
ENDCHAR
STARTCHAR uhungarumlaut
ENCODING 369
SWIDTH 500 0
DWIDTH 8 0
BBX 7 10 0 0
BITMAP
24
48
00
82
82
82
82
82
82
7E
ENDCHAR
STARTCHAR Uogonek
ENCODING 370
SWIDTH 500 0
DWIDTH 8 0
BBX 7 12 0 -3
BITMAP
82
82
82
82
82
82
82
44
38
10
20
18
ENDCHAR
STARTCHAR uogonek
ENCODING 371
SWIDTH 562 0
DWIDTH 9 0
BBX 8 10 0 -3
BITMAP
82
82
82
82
82
82
7E
02
04
03
ENDCHAR
STARTCHAR Wcircumflex
ENCODING 372
SWIDTH 500 0
DWIDTH 8 0
BBX 7 11 0 0
BITMAP
10
28
82
82
82
82
92
92
92
92
6C
ENDCHAR
STARTCHAR wcircumflex
ENCODING 373
SWIDTH 500 0
DWIDTH 8 0
BBX 7 9 0 0
BITMAP
10
28
82
82
82
92
92
92
6C
ENDCHAR
STARTCHAR Ycircumflex
ENCODING 374
SWIDTH 500 0
DWIDTH 8 0
BBX 7 11 0 0
BITMAP
10
28
82
44
28
10
10
10
10
10
10
ENDCHAR
STARTCHAR ycircumflex
ENCODING 375
SWIDTH 500 0
DWIDTH 8 0
BBX 7 13 0 -4
BITMAP
10
28
82
82
82
82
82
82
7E
02
02
82
7C
ENDCHAR
STARTCHAR Ydieresis
ENCODING 376
SWIDTH 500 0
DWIDTH 8 0
BBX 7 10 0 0
BITMAP
28
82
44
28
10
10
10
10
10
10
ENDCHAR
STARTCHAR Zacute
ENCODING 377
SWIDTH 500 0
DWIDTH 8 0
BBX 7 12 0 0
BITMAP
08
10
00
FE
02
04
08
10
20
40
80
FE
ENDCHAR
STARTCHAR zacute
ENCODING 378
SWIDTH 500 0
DWIDTH 8 0
BBX 7 10 0 0
BITMAP
08
10
00
FE
04
08
10
20
40
FE
ENDCHAR
STARTCHAR Zdotaccent
ENCODING 379
SWIDTH 500 0
DWIDTH 8 0
BBX 7 11 0 0
BITMAP
10
00
FE
02
04
08
10
20
40
80
FE
ENDCHAR
STARTCHAR zdotaccent
ENCODING 380
SWIDTH 500 0
DWIDTH 8 0
BBX 7 9 0 0
BITMAP
10
00
FE
04
08
10
20
40
FE
ENDCHAR
STARTCHAR Zcaron
ENCODING 381
SWIDTH 500 0
DWIDTH 8 0
BBX 7 12 0 0
BITMAP
28
10
00
FE
02
04
08
10
20
40
80
FE
ENDCHAR
STARTCHAR zcaron
ENCODING 382
SWIDTH 500 0
DWIDTH 8 0
BBX 7 10 0 0
BITMAP
28
10
00
FE
04
08
10
20
40
FE
ENDCHAR
STARTCHAR Euro
ENCODING 8364
SWIDTH 500 0
DWIDTH 8 0
BBX 7 9 0 0
BITMAP
3C
42
40
F0
40
F0
40
42
3C
ENDCHAR
STARTCHAR uni3000
ENCODING 12288
SWIDTH 1000 0
DWIDTH 16 0
BBX 1 1 0 0
BITMAP
00
ENDCHAR
ENDFONT
